<svg xmlns="http://www.w3.org/2000/svg" xmlns:xlink="http://www.w3.org/1999/xlink" width="1000" zoomAndPan="magnify" viewBox="0 0 750 749.999995" height="1000" preserveAspectRatio="xMidYMid meet" version="1.0"><path fill="#bf8abc" d="M 341.230469 526.421875 C 341.230469 528.433594 341.179688 530.441406 341.082031 532.453125 C 340.984375 534.460938 340.835938 536.464844 340.636719 538.464844 C 340.441406 540.46875 340.195312 542.460938 339.898438 544.453125 C 339.605469 546.441406 339.261719 548.421875 338.867188 550.394531 C 338.476562 552.367188 338.035156 554.328125 337.546875 556.277344 C 337.058594 558.230469 336.523438 560.167969 335.9375 562.089844 C 335.355469 564.015625 334.722656 565.925781 334.046875 567.816406 C 333.371094 569.710938 332.644531 571.585938 331.875 573.445312 C 331.105469 575.300781 330.292969 577.140625 329.433594 578.957031 C 328.574219 580.777344 327.667969 582.570312 326.722656 584.34375 C 325.773438 586.117188 324.78125 587.867188 323.75 589.59375 C 322.714844 591.316406 321.640625 593.015625 320.519531 594.6875 C 319.402344 596.359375 318.246094 598.003906 317.046875 599.617188 C 315.851562 601.234375 314.613281 602.820312 313.339844 604.375 C 312.0625 605.929688 310.75 607.449219 309.398438 608.941406 C 308.046875 610.429688 306.664062 611.886719 305.242188 613.308594 C 303.820312 614.730469 302.363281 616.117188 300.871094 617.464844 C 299.382812 618.816406 297.859375 620.128906 296.304688 621.40625 C 294.75 622.679688 293.167969 623.917969 291.550781 625.117188 C 289.9375 626.3125 288.292969 627.472656 286.621094 628.589844 C 284.949219 629.707031 283.25 630.78125 281.523438 631.816406 C 279.800781 632.847656 278.050781 633.839844 276.277344 634.789062 C 274.503906 635.734375 272.707031 636.640625 270.890625 637.5 C 269.074219 638.359375 267.234375 639.175781 265.375 639.945312 C 263.519531 640.714844 261.644531 641.4375 259.75 642.113281 C 257.855469 642.792969 255.949219 643.421875 254.023438 644.007812 C 252.097656 644.589844 250.160156 645.125 248.210938 645.613281 C 246.261719 646.101562 244.296875 646.542969 242.328125 646.9375 C 240.355469 647.328125 238.375 647.671875 236.382812 647.96875 C 234.394531 648.261719 232.398438 648.507812 230.398438 648.707031 C 228.398438 648.902344 226.390625 649.050781 224.382812 649.148438 C 222.375 649.246094 220.367188 649.296875 218.355469 649.296875 C 216.34375 649.296875 214.332031 649.246094 212.324219 649.148438 C 210.316406 649.050781 208.3125 648.902344 206.3125 648.707031 C 204.308594 648.507812 202.3125 648.261719 200.324219 647.96875 C 198.335938 647.671875 196.355469 647.328125 194.382812 646.9375 C 192.410156 646.542969 190.449219 646.101562 188.5 645.613281 C 186.546875 645.125 184.609375 644.589844 182.6875 644.007812 C 180.761719 643.421875 178.851562 642.792969 176.960938 642.113281 C 175.066406 641.4375 173.191406 640.714844 171.332031 639.945312 C 169.472656 639.175781 167.636719 638.359375 165.820312 637.5 C 164 636.640625 162.203125 635.734375 160.429688 634.789062 C 158.65625 633.839844 156.910156 632.847656 155.183594 631.816406 C 153.460938 630.78125 151.761719 629.707031 150.089844 628.589844 C 148.417969 627.472656 146.773438 626.3125 145.15625 625.117188 C 143.542969 623.917969 141.957031 622.679688 140.402344 621.40625 C 138.847656 620.128906 137.328125 618.816406 135.835938 617.464844 C 134.347656 616.117188 132.890625 614.730469 131.46875 613.308594 C 130.046875 611.886719 128.660156 610.429688 127.308594 608.941406 C 125.960938 607.449219 124.644531 605.929688 123.371094 604.375 C 122.09375 602.820312 120.859375 601.234375 119.660156 599.617188 C 118.460938 598.003906 117.304688 596.359375 116.1875 594.6875 C 115.070312 593.015625 113.996094 591.316406 112.960938 589.59375 C 111.925781 587.867188 110.9375 586.117188 109.988281 584.34375 C 109.039062 582.570312 108.136719 580.777344 107.277344 578.957031 C 106.417969 577.140625 105.601562 575.300781 104.832031 573.445312 C 104.0625 571.585938 103.339844 569.710938 102.660156 567.816406 C 101.984375 565.925781 101.355469 564.015625 100.769531 562.089844 C 100.1875 560.167969 99.648438 558.230469 99.160156 556.277344 C 98.671875 554.328125 98.234375 552.367188 97.839844 550.394531 C 97.449219 548.421875 97.105469 546.441406 96.808594 544.453125 C 96.515625 542.460938 96.269531 540.46875 96.070312 538.464844 C 95.875 536.464844 95.726562 534.460938 95.628906 532.453125 C 95.527344 530.441406 95.480469 528.433594 95.480469 526.421875 C 95.480469 524.410156 95.527344 522.402344 95.628906 520.394531 C 95.726562 518.382812 95.875 516.378906 96.070312 514.378906 C 96.269531 512.375 96.515625 510.382812 96.808594 508.390625 C 97.105469 506.402344 97.449219 504.421875 97.839844 502.449219 C 98.234375 500.476562 98.671875 498.515625 99.160156 496.566406 C 99.648438 494.613281 100.1875 492.675781 100.769531 490.753906 C 101.355469 488.828125 101.984375 486.921875 102.660156 485.027344 C 103.339844 483.132812 104.0625 481.257812 104.832031 479.398438 C 105.601562 477.542969 106.417969 475.703125 107.277344 473.886719 C 108.136719 472.066406 109.039062 470.273438 109.988281 468.5 C 110.9375 466.726562 111.925781 464.976562 112.960938 463.25 C 113.996094 461.527344 115.070312 459.828125 116.1875 458.15625 C 117.304688 456.484375 118.460938 454.839844 119.660156 453.226562 C 120.859375 451.609375 122.09375 450.023438 123.371094 448.472656 C 124.644531 446.917969 125.960938 445.394531 127.308594 443.902344 C 128.660156 442.414062 130.046875 440.957031 131.46875 439.535156 C 132.890625 438.113281 134.347656 436.726562 135.835938 435.378906 C 137.328125 434.027344 138.847656 432.714844 140.402344 431.4375 C 141.957031 430.164062 143.542969 428.925781 145.15625 427.726562 C 146.773438 426.53125 148.417969 425.371094 150.089844 424.253906 C 151.761719 423.136719 153.460938 422.0625 155.183594 421.027344 C 156.910156 419.996094 158.65625 419.003906 160.429688 418.054688 C 162.203125 417.109375 164 416.203125 165.820312 415.34375 C 167.636719 414.484375 169.472656 413.667969 171.332031 412.898438 C 173.191406 412.128906 175.066406 411.40625 176.960938 410.730469 C 178.851562 410.050781 180.761719 409.421875 182.6875 408.835938 C 184.609375 408.253906 186.546875 407.71875 188.5 407.230469 C 190.449219 406.742188 192.410156 406.300781 194.382812 405.90625 C 196.355469 405.515625 198.335938 405.171875 200.324219 404.875 C 202.3125 404.582031 204.308594 404.335938 206.3125 404.136719 C 208.3125 403.941406 210.316406 403.792969 212.324219 403.695312 C 214.332031 403.597656 216.34375 403.546875 218.355469 403.546875 C 220.367188 403.546875 222.375 403.597656 224.382812 403.695312 C 226.390625 403.792969 228.398438 403.941406 230.398438 404.136719 C 232.398438 404.335938 234.394531 404.582031 236.382812 404.875 C 238.375 405.171875 240.355469 405.515625 242.328125 405.90625 C 244.296875 406.300781 246.261719 406.742188 248.210938 407.230469 C 250.160156 407.71875 252.097656 408.253906 254.023438 408.835938 C 255.949219 409.421875 257.855469 410.050781 259.75 410.730469 C 261.644531 411.40625 263.519531 412.128906 265.375 412.898438 C 267.234375 413.667969 269.074219 414.484375 270.890625 415.34375 C 272.707031 416.203125 274.503906 417.109375 276.277344 418.054688 C 278.050781 419.003906 279.800781 419.996094 281.523438 421.027344 C 283.25 422.0625 284.949219 423.136719 286.621094 424.253906 C 288.292969 425.371094 289.9375 426.53125 291.550781 427.726562 C 293.167969 428.925781 294.75 430.164062 296.304688 431.4375 C 297.859375 432.714844 299.382812 434.027344 300.871094 435.378906 C 302.363281 436.726562 303.820312 438.113281 305.242188 439.535156 C 306.664062 440.957031 308.046875 442.414062 309.398438 443.902344 C 310.75 445.394531 312.0625 446.917969 313.339844 448.472656 C 314.613281 450.023438 315.851562 451.609375 317.046875 453.226562 C 318.246094 454.839844 319.402344 456.484375 320.519531 458.15625 C 321.636719 459.828125 322.714844 461.527344 323.75 463.25 C 324.78125 464.976562 325.773438 466.726562 326.722656 468.5 C 327.667969 470.273438 328.574219 472.066406 329.433594 473.886719 C 330.292969 475.703125 331.105469 477.542969 331.875 479.398438 C 332.644531 481.257812 333.371094 483.132812 334.046875 485.027344 C 334.722656 486.921875 335.355469 488.828125 335.9375 490.753906 C 336.523438 492.675781 337.058594 494.613281 337.546875 496.566406 C 338.035156 498.515625 338.476562 500.476562 338.867188 502.449219 C 339.261719 504.421875 339.605469 506.402344 339.898438 508.390625 C 340.195312 510.382812 340.441406 512.375 340.636719 514.378906 C 340.835938 516.378906 340.984375 518.382812 341.082031 520.394531 C 341.179688 522.402344 341.230469 524.410156 341.230469 526.421875 Z M 341.230469 526.421875 " fill-opacity="1" fill-rule="nonzero"/><path fill="#bf8abc" d="M 648.109375 587.859375 C 648.109375 589.871094 648.007812 591.878906 647.8125 593.882812 C 647.613281 595.882812 647.320312 597.871094 646.925781 599.84375 C 646.535156 601.820312 646.046875 603.769531 645.460938 605.695312 C 644.878906 607.621094 644.199219 609.511719 643.429688 611.371094 C 642.660156 613.230469 641.800781 615.046875 640.851562 616.820312 C 639.90625 618.59375 638.871094 620.320312 637.753906 621.992188 C 636.636719 623.664062 635.4375 625.28125 634.160156 626.835938 C 632.886719 628.390625 631.535156 629.878906 630.113281 631.300781 C 628.691406 632.726562 627.199219 634.074219 625.644531 635.351562 C 624.089844 636.628906 622.476562 637.824219 620.800781 638.941406 C 619.128906 640.0625 617.40625 641.09375 615.632812 642.042969 C 613.855469 642.992188 612.039062 643.851562 610.179688 644.621094 C 608.320312 645.390625 606.429688 646.066406 604.503906 646.652344 C 602.578125 647.234375 600.628906 647.722656 598.65625 648.117188 C 596.683594 648.507812 594.695312 648.804688 592.691406 649 C 590.6875 649.199219 588.683594 649.296875 586.667969 649.296875 C 584.65625 649.296875 582.652344 649.199219 580.648438 649 C 578.644531 648.804688 576.65625 648.507812 574.683594 648.117188 C 572.710938 647.722656 570.761719 647.234375 568.835938 646.652344 C 566.910156 646.066406 565.019531 645.390625 563.160156 644.621094 C 561.300781 643.851562 559.484375 642.992188 557.707031 642.042969 C 555.933594 641.09375 554.210938 640.0625 552.535156 638.941406 C 550.863281 637.824219 549.25 636.628906 547.695312 635.351562 C 546.140625 634.074219 544.648438 632.726562 543.226562 631.300781 C 541.804688 629.878906 540.453125 628.390625 539.179688 626.835938 C 537.902344 625.28125 536.703125 623.664062 535.585938 621.992188 C 534.46875 620.320312 533.433594 618.59375 532.488281 616.820312 C 531.539062 615.046875 530.679688 613.230469 529.910156 611.371094 C 529.140625 609.511719 528.460938 607.621094 527.878906 605.695312 C 527.292969 603.769531 526.804688 601.820312 526.414062 599.84375 C 526.019531 597.871094 525.726562 595.882812 525.527344 593.882812 C 525.332031 591.878906 525.230469 589.871094 525.230469 587.859375 C 525.230469 585.847656 525.332031 583.839844 525.527344 581.835938 C 525.726562 579.835938 526.019531 577.847656 526.414062 575.875 C 526.804688 573.898438 527.292969 571.949219 527.878906 570.023438 C 528.460938 568.101562 529.140625 566.207031 529.910156 564.347656 C 530.679688 562.488281 531.539062 560.671875 532.488281 558.898438 C 533.433594 557.125 534.46875 555.398438 535.585938 553.726562 C 536.703125 552.054688 537.902344 550.4375 539.179688 548.882812 C 540.453125 547.328125 541.804688 545.839844 543.226562 544.417969 C 544.648438 542.992188 546.140625 541.644531 547.695312 540.367188 C 549.25 539.089844 550.863281 537.894531 552.535156 536.777344 C 554.210938 535.65625 555.933594 534.625 557.707031 533.675781 C 559.484375 532.726562 561.300781 531.867188 563.160156 531.097656 C 565.019531 530.328125 566.910156 529.652344 568.835938 529.066406 C 570.761719 528.484375 572.710938 527.996094 574.683594 527.601562 C 576.65625 527.210938 578.644531 526.914062 580.648438 526.71875 C 582.652344 526.519531 584.65625 526.421875 586.667969 526.421875 C 588.683594 526.421875 590.6875 526.519531 592.691406 526.71875 C 594.695312 526.914062 596.683594 527.210938 598.65625 527.601562 C 600.628906 527.996094 602.578125 528.484375 604.503906 529.066406 C 606.429688 529.652344 608.320312 530.328125 610.179688 531.097656 C 612.039062 531.867188 613.855469 532.726562 615.632812 533.675781 C 617.40625 534.625 619.128906 535.660156 620.800781 536.777344 C 622.476562 537.894531 624.089844 539.089844 625.644531 540.367188 C 627.199219 541.644531 628.691406 542.992188 630.113281 544.417969 C 631.535156 545.839844 632.886719 547.328125 634.160156 548.882812 C 635.4375 550.4375 636.636719 552.054688 637.753906 553.726562 C 638.871094 555.398438 639.90625 557.125 640.851562 558.898438 C 641.800781 560.671875 642.660156 562.488281 643.429688 564.347656 C 644.199219 566.207031 644.878906 568.101562 645.460938 570.023438 C 646.046875 571.949219 646.535156 573.898438 646.925781 575.875 C 647.320312 577.847656 647.613281 579.835938 647.8125 581.835938 C 648.007812 583.839844 648.109375 585.847656 648.109375 587.859375 Z M 648.109375 587.859375 " fill-opacity="1" fill-rule="nonzero"/><path fill="#81a9dd" d="M 258.230469 516.976562 C 258.539062 518.28125 258.78125 519.597656 258.960938 520.929688 C 259.140625 522.257812 259.253906 523.59375 259.300781 524.933594 C 259.347656 526.273438 259.328125 527.613281 259.246094 528.953125 C 259.160156 530.292969 259.011719 531.621094 258.796875 532.945312 C 258.582031 534.269531 258.304688 535.582031 257.960938 536.878906 C 257.617188 538.175781 257.210938 539.453125 256.742188 540.707031 C 256.273438 541.964844 255.742188 543.195312 255.152344 544.402344 C 254.5625 545.605469 253.914062 546.777344 253.210938 547.917969 C 252.503906 549.0625 251.746094 550.164062 250.933594 551.230469 C 250.117188 552.296875 249.253906 553.320312 248.339844 554.304688 C 247.425781 555.285156 246.464844 556.21875 245.460938 557.105469 C 244.453125 557.996094 243.40625 558.828125 242.320312 559.613281 C 241.230469 560.398438 240.105469 561.128906 238.945312 561.800781 C 237.785156 562.476562 236.597656 563.089844 235.375 563.648438 C 234.15625 564.207031 232.910156 564.703125 231.640625 565.136719 C 230.375 565.570312 229.085938 565.941406 227.78125 566.25 C 226.476562 566.558594 225.15625 566.800781 223.828125 566.980469 C 222.5 567.160156 221.164062 567.273438 219.824219 567.320312 C 218.484375 567.367188 217.144531 567.351562 215.804688 567.265625 C 214.464844 567.183594 213.132812 567.035156 211.808594 566.820312 C 210.484375 566.605469 209.175781 566.324219 207.878906 565.980469 C 206.582031 565.636719 205.304688 565.230469 204.046875 564.761719 C 202.792969 564.292969 201.558594 563.765625 200.355469 563.175781 C 199.152344 562.585938 197.976562 561.9375 196.835938 561.230469 C 195.695312 560.527344 194.59375 559.765625 193.527344 558.953125 C 192.457031 558.140625 191.433594 557.277344 190.453125 556.359375 C 189.472656 555.445312 188.535156 554.488281 187.648438 553.480469 C 186.761719 552.476562 185.925781 551.425781 185.140625 550.339844 C 184.359375 549.25 183.628906 548.128906 182.953125 546.96875 C 182.28125 545.808594 181.664062 544.617188 181.109375 543.398438 C 180.550781 542.175781 180.054688 540.933594 179.621094 539.664062 C 179.1875 538.394531 178.8125 537.105469 178.503906 535.800781 C 178.199219 534.496094 177.953125 533.179688 177.773438 531.847656 C 177.597656 530.519531 177.484375 529.183594 177.433594 527.84375 C 177.386719 526.503906 177.40625 525.164062 177.488281 523.824219 C 177.574219 522.484375 177.722656 521.15625 177.9375 519.832031 C 178.152344 518.507812 178.433594 517.195312 178.777344 515.898438 C 179.117188 514.601562 179.523438 513.324219 179.996094 512.070312 C 180.464844 510.8125 180.992188 509.582031 181.582031 508.375 C 182.171875 507.171875 182.820312 506 183.523438 504.859375 C 184.230469 503.714844 184.988281 502.613281 185.804688 501.546875 C 186.617188 500.480469 187.480469 499.457031 188.394531 498.472656 C 189.308594 497.492188 190.269531 496.558594 191.277344 495.671875 C 192.28125 494.785156 193.328125 493.949219 194.417969 493.164062 C 195.503906 492.378906 196.628906 491.648438 197.789062 490.976562 C 198.949219 490.300781 200.140625 489.6875 201.359375 489.128906 C 202.578125 488.570312 203.824219 488.074219 205.09375 487.640625 C 206.363281 487.207031 207.648438 486.835938 208.957031 486.527344 C 210.261719 486.21875 211.578125 485.976562 212.90625 485.796875 C 214.238281 485.617188 215.570312 485.503906 216.914062 485.457031 C 218.253906 485.410156 219.59375 485.425781 220.933594 485.511719 C 222.269531 485.59375 223.601562 485.742188 224.925781 485.957031 C 226.25 486.171875 227.5625 486.453125 228.859375 486.796875 C 230.152344 487.140625 231.429688 487.546875 232.6875 488.015625 C 233.945312 488.484375 235.175781 489.011719 236.378906 489.601562 C 237.585938 490.191406 238.757812 490.839844 239.898438 491.546875 C 241.039062 492.25 242.144531 493.011719 243.210938 493.824219 C 244.277344 494.636719 245.300781 495.5 246.28125 496.417969 C 247.265625 497.332031 248.199219 498.289062 249.085938 499.296875 C 249.972656 500.300781 250.808594 501.351562 251.59375 502.4375 C 252.378906 503.527344 253.105469 504.648438 253.78125 505.808594 C 254.457031 506.96875 255.070312 508.160156 255.628906 509.378906 C 256.183594 510.601562 256.679688 511.84375 257.117188 513.113281 C 257.550781 514.382812 257.921875 515.671875 258.230469 516.976562 Z M 258.230469 516.976562 " fill-opacity="1" fill-rule="nonzero"/><path fill="#81a9dd" d="M 238.832031 280.980469 L 238.832031 384.617188 C 269.863281 388.964844 297.480469 403.546875 318.578125 424.335938 L 463.792969 424.335938 L 463.792969 280.980469 Z M 238.832031 280.980469 " fill-opacity="1" fill-rule="nonzero"/><path fill="#6f92bf" d="M 361.398438 280.980469 L 463.792969 280.980469 L 463.792969 424.335938 L 361.398438 424.335938 Z M 361.398438 280.980469 " fill-opacity="1" fill-rule="nonzero"/><path fill="#f2f2f2" d="M 218.355469 464.984375 C 184.53125 464.984375 156.917969 492.601562 156.917969 526.421875 C 156.917969 560.242188 184.53125 587.859375 218.355469 587.859375 C 252.175781 587.859375 279.792969 560.242188 279.792969 526.421875 C 279.792969 492.601562 252.175781 464.984375 218.355469 464.984375 Z M 218.355469 546.902344 C 207.183594 546.902344 197.875 537.59375 197.875 526.421875 C 197.875 515.25 207.183594 505.941406 218.355469 505.941406 C 229.523438 505.941406 238.832031 515.25 238.832031 526.421875 C 238.832031 537.59375 229.523438 546.902344 218.355469 546.902344 Z M 218.355469 546.902344 " fill-opacity="1" fill-rule="nonzero"/><path fill="#f2f2f2" d="M 607.148438 508.425781 L 607.148438 424.027344 L 504.753906 424.027344 L 504.753906 280.980469 L 586.667969 280.980469 L 586.667969 240.023438 L 238.832031 240.023438 L 238.832031 76.191406 L 95.480469 76.191406 L 95.480469 117.148438 L 197.875 117.148438 L 197.875 384.617188 C 128.371094 394.546875 75 454.125 75 526.113281 C 75 607.71875 143.882812 673.808594 226.421875 669.15625 C 299.339844 665.121094 357.984375 605.546875 361.398438 532.316406 C 362.328125 508.113281 357.363281 485.152344 347.746094 464.984375 L 566.191406 464.984375 L 566.191406 508.425781 C 531.128906 517.734375 504.753906 549.382812 504.753906 587.550781 C 504.753906 634.714844 544.46875 672.570312 592.253906 669.15625 C 631.972656 666.363281 664.554688 634.714844 667.964844 594.996094 C 672 553.417969 644.695312 518.355469 607.148438 508.425781 Z M 218.355469 628.816406 C 161.882812 628.816406 115.957031 582.894531 115.957031 526.421875 C 115.957031 469.949219 161.882812 424.027344 218.355469 424.027344 C 274.828125 424.027344 320.75 469.949219 320.75 526.421875 C 320.441406 582.894531 274.828125 628.816406 218.355469 628.816406 Z M 463.792969 424.027344 L 318.578125 424.027344 C 297.167969 403.238281 269.550781 388.964844 238.832031 384.308594 L 238.832031 280.980469 L 464.105469 280.980469 L 464.105469 424.027344 Z M 586.667969 628.816406 C 564.019531 628.816406 545.710938 610.511719 545.710938 587.859375 C 545.710938 565.207031 564.019531 546.902344 586.667969 546.902344 C 609.320312 546.902344 627.628906 565.207031 627.628906 587.859375 C 627.628906 610.199219 609.011719 628.816406 586.667969 628.816406 Z M 586.667969 628.816406 " fill-opacity="1" fill-rule="nonzero"/></svg>