<svg xmlns="http://www.w3.org/2000/svg" xmlns:xlink="http://www.w3.org/1999/xlink" width="1000" zoomAndPan="magnify" viewBox="0 0 750 749.999995" height="1000" preserveAspectRatio="xMidYMid meet" version="1.0"><path fill="#bf8abc" d="M 589.457031 362.800781 L 589.457031 396.234375 L 503.613281 396.234375 L 503.613281 310.691406 L 555.121094 310.691406 Z M 589.457031 362.800781 " fill-opacity="1" fill-rule="nonzero"/><path fill="#bf8abc" d="M 557.230469 214.308594 L 557.230469 235.691406 L 514.457031 235.691406 L 514.457031 214.308594 C 514.457031 202.558594 524.097656 192.921875 535.84375 192.921875 C 547.589844 192.921875 557.230469 202.558594 557.230469 214.308594 Z M 557.230469 214.308594 " fill-opacity="1" fill-rule="nonzero"/><path fill="#bf8abc" d="M 96.386719 203.464844 L 96.386719 503.464844 L 160.542969 503.464844 C 160.542969 479.96875 179.820312 460.691406 203.3125 460.691406 C 226.808594 460.691406 246.085938 479.96875 246.085938 503.464844 L 438.855469 503.464844 L 438.855469 203.464844 Z M 96.386719 203.464844 " fill-opacity="1" fill-rule="nonzero"/><path fill="#81a9dd" d="M 653.613281 338.402344 L 653.613281 503.765625 L 589.457031 503.765625 C 589.457031 480.269531 570.179688 460.992188 546.6875 460.992188 C 523.191406 460.992188 503.914062 480.269531 503.914062 503.765625 L 439.757812 503.765625 L 439.757812 246.234375 L 589.757812 246.234375 Z M 589.457031 396.234375 L 589.457031 362.800781 L 555.121094 310.691406 L 503.613281 310.691406 L 503.613281 396.535156 L 589.457031 396.535156 Z M 589.457031 396.234375 " fill-opacity="1" fill-rule="nonzero"/><path fill="#81a9dd" d="M 321.386719 321.234375 L 321.386719 364.308594 L 278.613281 364.308594 L 278.613281 407.078125 L 235.84375 407.078125 L 235.84375 364.308594 L 192.769531 364.308594 L 192.769531 321.234375 L 235.84375 321.234375 L 235.84375 278.464844 L 278.613281 278.464844 L 278.613281 321.234375 Z M 321.386719 321.234375 " fill-opacity="1" fill-rule="nonzero"/><path fill="#bf8abc" d="M 503.613281 353.464844 L 503.613281 396.234375 L 589.457031 396.234375 L 589.457031 362.800781 L 583.132812 353.464844 Z M 503.613281 353.464844 " fill-opacity="1" fill-rule="nonzero"/><path fill="#bf8abc" d="M 96.386719 353.464844 L 96.386719 503.464844 L 160.542969 503.464844 C 160.542969 479.96875 179.820312 460.691406 203.3125 460.691406 C 226.808594 460.691406 246.085938 479.96875 246.085938 503.464844 L 438.855469 503.464844 L 438.855469 353.464844 Z M 96.386719 353.464844 " fill-opacity="1" fill-rule="nonzero"/><path fill="#6f92bf" d="M 589.15625 503.464844 C 589.15625 504.863281 589.089844 506.261719 588.949219 507.65625 C 588.8125 509.050781 588.609375 510.433594 588.335938 511.808594 C 588.0625 513.183594 587.722656 514.539062 587.316406 515.878906 C 586.910156 517.21875 586.4375 518.539062 585.902344 519.832031 C 585.363281 521.125 584.765625 522.390625 584.105469 523.625 C 583.445312 524.863281 582.726562 526.0625 581.949219 527.226562 C 581.171875 528.390625 580.335938 529.515625 579.449219 530.597656 C 578.558594 531.679688 577.621094 532.71875 576.628906 533.707031 C 575.640625 534.699219 574.601562 535.636719 573.519531 536.527344 C 572.4375 537.414062 571.3125 538.25 570.148438 539.027344 C 568.984375 539.804688 567.78125 540.523438 566.546875 541.183594 C 565.3125 541.84375 564.046875 542.441406 562.753906 542.980469 C 561.460938 543.515625 560.140625 543.988281 558.800781 544.394531 C 557.460938 544.800781 556.105469 545.140625 554.730469 545.414062 C 553.355469 545.6875 551.972656 545.890625 550.578125 546.027344 C 549.183594 546.167969 547.785156 546.234375 546.386719 546.234375 C 544.984375 546.234375 543.585938 546.167969 542.191406 546.027344 C 540.800781 545.890625 539.414062 545.6875 538.042969 545.414062 C 536.667969 545.140625 535.308594 544.800781 533.96875 544.394531 C 532.628906 543.988281 531.3125 543.515625 530.019531 542.980469 C 528.722656 542.441406 527.457031 541.84375 526.222656 541.183594 C 524.988281 540.523438 523.789062 539.804688 522.625 539.027344 C 521.457031 538.25 520.335938 537.414062 519.25 536.527344 C 518.167969 535.636719 517.132812 534.699219 516.140625 533.707031 C 515.152344 532.71875 514.210938 531.679688 513.324219 530.597656 C 512.433594 529.515625 511.601562 528.390625 510.824219 527.226562 C 510.042969 526.0625 509.324219 524.863281 508.664062 523.625 C 508.003906 522.390625 507.40625 521.125 506.871094 519.832031 C 506.335938 518.539062 505.863281 517.21875 505.457031 515.878906 C 505.050781 514.539062 504.710938 513.183594 504.4375 511.808594 C 504.164062 510.433594 503.957031 509.050781 503.820312 507.65625 C 503.683594 506.261719 503.613281 504.863281 503.613281 503.464844 C 503.613281 502.0625 503.683594 500.664062 503.820312 499.273438 C 503.957031 497.878906 504.164062 496.492188 504.4375 495.121094 C 504.710938 493.746094 505.050781 492.386719 505.457031 491.046875 C 505.863281 489.707031 506.335938 488.390625 506.871094 487.097656 C 507.40625 485.800781 508.003906 484.535156 508.664062 483.300781 C 509.324219 482.066406 510.042969 480.867188 510.824219 479.703125 C 511.601562 478.535156 512.433594 477.414062 513.324219 476.332031 C 514.210938 475.246094 515.152344 474.210938 516.140625 473.21875 C 517.132812 472.230469 518.167969 471.289062 519.25 470.402344 C 520.335938 469.511719 521.457031 468.679688 522.625 467.902344 C 523.789062 467.121094 524.988281 466.402344 526.222656 465.742188 C 527.457031 465.082031 528.722656 464.484375 530.019531 463.949219 C 531.3125 463.414062 532.628906 462.941406 533.96875 462.535156 C 535.308594 462.128906 536.667969 461.789062 538.042969 461.515625 C 539.414062 461.242188 540.800781 461.035156 542.191406 460.898438 C 543.585938 460.761719 544.984375 460.691406 546.386719 460.691406 C 547.785156 460.691406 549.183594 460.761719 550.578125 460.898438 C 551.972656 461.035156 553.355469 461.242188 554.730469 461.515625 C 556.105469 461.789062 557.460938 462.128906 558.800781 462.535156 C 560.140625 462.941406 561.460938 463.414062 562.753906 463.949219 C 564.046875 464.484375 565.3125 465.082031 566.546875 465.742188 C 567.78125 466.402344 568.984375 467.121094 570.148438 467.902344 C 571.3125 468.679688 572.4375 469.511719 573.519531 470.402344 C 574.601562 471.289062 575.640625 472.230469 576.628906 473.21875 C 577.621094 474.210938 578.558594 475.246094 579.449219 476.332031 C 580.335938 477.414062 581.171875 478.535156 581.949219 479.703125 C 582.726562 480.867188 583.445312 482.066406 584.105469 483.300781 C 584.765625 484.535156 585.363281 485.800781 585.902344 487.097656 C 586.4375 488.390625 586.910156 489.707031 587.316406 491.046875 C 587.722656 492.386719 588.0625 493.746094 588.335938 495.121094 C 588.609375 496.492188 588.8125 497.878906 588.949219 499.273438 C 589.089844 500.664062 589.15625 502.0625 589.15625 503.464844 Z M 589.15625 503.464844 " fill-opacity="1" fill-rule="nonzero"/><path fill="#6f92bf" d="M 246.386719 503.464844 C 246.386719 504.863281 246.316406 506.261719 246.179688 507.65625 C 246.042969 509.050781 245.835938 510.433594 245.5625 511.808594 C 245.289062 513.183594 244.949219 514.539062 244.542969 515.878906 C 244.136719 517.21875 243.664062 518.539062 243.128906 519.832031 C 242.59375 521.125 241.996094 522.390625 241.335938 523.625 C 240.675781 524.863281 239.957031 526.0625 239.175781 527.226562 C 238.398438 528.390625 237.566406 529.515625 236.675781 530.597656 C 235.789062 531.679688 234.847656 532.71875 233.859375 533.707031 C 232.867188 534.699219 231.832031 535.636719 230.75 536.527344 C 229.664062 537.414062 228.542969 538.25 227.375 539.027344 C 226.210938 539.804688 225.011719 540.523438 223.777344 541.183594 C 222.542969 541.84375 221.277344 542.441406 219.980469 542.980469 C 218.6875 543.515625 217.371094 543.988281 216.03125 544.394531 C 214.691406 544.800781 213.332031 545.140625 211.957031 545.414062 C 210.585938 545.6875 209.199219 545.890625 207.808594 546.027344 C 206.414062 546.167969 205.015625 546.234375 203.613281 546.234375 C 202.214844 546.234375 200.816406 546.167969 199.421875 546.027344 C 198.027344 545.890625 196.644531 545.6875 195.269531 545.414062 C 193.894531 545.140625 192.539062 544.800781 191.199219 544.394531 C 189.859375 543.988281 188.539062 543.515625 187.246094 542.980469 C 185.953125 542.441406 184.6875 541.84375 183.453125 541.183594 C 182.21875 540.523438 181.015625 539.804688 179.851562 539.027344 C 178.6875 538.25 177.5625 537.414062 176.480469 536.527344 C 175.398438 535.636719 174.359375 534.699219 173.371094 533.707031 C 172.378906 532.71875 171.441406 531.679688 170.550781 530.597656 C 169.664062 529.515625 168.828125 528.390625 168.050781 527.226562 C 167.273438 526.0625 166.554688 524.863281 165.894531 523.625 C 165.234375 522.390625 164.636719 521.125 164.097656 519.832031 C 163.5625 518.539062 163.089844 517.21875 162.683594 515.878906 C 162.277344 514.539062 161.9375 513.183594 161.664062 511.808594 C 161.390625 510.433594 161.1875 509.050781 161.050781 507.65625 C 160.910156 506.261719 160.84375 504.863281 160.84375 503.464844 C 160.84375 502.0625 160.910156 500.664062 161.050781 499.273438 C 161.1875 497.878906 161.390625 496.492188 161.664062 495.121094 C 161.9375 493.746094 162.277344 492.386719 162.683594 491.046875 C 163.089844 489.707031 163.5625 488.390625 164.097656 487.097656 C 164.636719 485.800781 165.234375 484.535156 165.894531 483.300781 C 166.554688 482.066406 167.273438 480.867188 168.050781 479.703125 C 168.828125 478.535156 169.664062 477.414062 170.550781 476.332031 C 171.441406 475.246094 172.378906 474.210938 173.371094 473.21875 C 174.359375 472.230469 175.398438 471.289062 176.480469 470.402344 C 177.5625 469.511719 178.6875 468.679688 179.851562 467.902344 C 181.015625 467.121094 182.21875 466.402344 183.453125 465.742188 C 184.6875 465.082031 185.953125 464.484375 187.246094 463.949219 C 188.539062 463.414062 189.859375 462.941406 191.199219 462.535156 C 192.539062 462.128906 193.894531 461.789062 195.269531 461.515625 C 196.644531 461.242188 198.027344 461.035156 199.421875 460.898438 C 200.816406 460.761719 202.214844 460.691406 203.613281 460.691406 C 205.015625 460.691406 206.414062 460.761719 207.808594 460.898438 C 209.199219 461.035156 210.585938 461.242188 211.957031 461.515625 C 213.332031 461.789062 214.691406 462.128906 216.03125 462.535156 C 217.371094 462.941406 218.6875 463.414062 219.980469 463.949219 C 221.277344 464.484375 222.542969 465.082031 223.777344 465.742188 C 225.011719 466.402344 226.210938 467.121094 227.375 467.902344 C 228.542969 468.679688 229.664062 469.511719 230.75 470.402344 C 231.832031 471.289062 232.867188 472.230469 233.859375 473.21875 C 234.847656 474.210938 235.789062 475.246094 236.675781 476.332031 C 237.566406 477.414062 238.398438 478.535156 239.175781 479.703125 C 239.957031 480.867188 240.675781 482.066406 241.335938 483.300781 C 241.996094 484.535156 242.59375 485.800781 243.128906 487.097656 C 243.664062 488.390625 244.136719 489.707031 244.542969 491.046875 C 244.949219 492.386719 245.289062 493.746094 245.5625 495.121094 C 245.835938 496.492188 246.042969 497.878906 246.179688 499.273438 C 246.316406 500.664062 246.386719 502.0625 246.386719 503.464844 Z M 246.386719 503.464844 " fill-opacity="1" fill-rule="nonzero"/><path fill="#6f92bf" d="M 583.132812 353.464844 L 589.15625 362.800781 L 589.15625 396.535156 L 503.3125 396.535156 L 503.3125 353.464844 L 439.15625 353.464844 L 439.15625 503.464844 L 503.3125 503.464844 C 503.3125 479.96875 522.589844 460.691406 546.085938 460.691406 C 569.578125 460.691406 588.855469 479.96875 588.855469 503.464844 L 653.011719 503.464844 L 653.011719 353.464844 Z M 583.132812 353.464844 " fill-opacity="1" fill-rule="nonzero"/><path fill="#6f92bf" d="M 192.769531 353.464844 L 192.769531 364.308594 L 235.84375 364.308594 L 235.84375 407.078125 L 278.613281 407.078125 L 278.613281 364.308594 L 321.386719 364.308594 L 321.386719 353.464844 Z M 192.769531 353.464844 " fill-opacity="1" fill-rule="nonzero"/><path fill="#f2f2f2" d="M 589.457031 407.078125 L 503.613281 407.078125 C 497.589844 407.078125 492.769531 402.257812 492.769531 396.234375 L 492.769531 310.691406 C 492.769531 304.667969 497.589844 299.847656 503.613281 299.847656 L 555.121094 299.847656 C 558.734375 299.847656 562.046875 301.65625 564.15625 304.667969 L 598.191406 356.777344 C 599.398438 358.585938 600 360.691406 600 362.800781 L 600 396.535156 C 600 402.257812 595.179688 407.078125 589.457031 407.078125 Z M 514.457031 385.691406 L 578.613281 385.691406 L 578.613281 365.8125 L 549.398438 321.234375 L 514.457031 321.234375 Z M 514.457031 385.691406 " fill-opacity="1" fill-rule="nonzero"/><path fill="#f2f2f2" d="M 278.613281 417.921875 L 235.84375 417.921875 C 229.820312 417.921875 225 413.101562 225 407.078125 L 225 374.847656 L 192.769531 374.847656 C 186.746094 374.847656 181.925781 370.03125 181.925781 364.007812 L 181.925781 321.234375 C 181.925781 315.210938 186.746094 310.390625 192.769531 310.390625 L 225 310.390625 L 225 278.464844 C 225 272.441406 229.820312 267.621094 235.84375 267.621094 L 278.613281 267.621094 C 284.636719 267.621094 289.457031 272.441406 289.457031 278.464844 L 289.457031 310.691406 L 321.6875 310.691406 C 327.710938 310.691406 332.53125 315.511719 332.53125 321.535156 L 332.53125 364.308594 C 332.53125 370.332031 327.710938 375.152344 321.6875 375.152344 L 289.15625 375.152344 L 289.15625 407.378906 C 289.15625 413.101562 284.636719 417.921875 278.613281 417.921875 Z M 246.386719 396.234375 L 267.769531 396.234375 L 267.769531 364.308594 C 267.769531 358.28125 272.589844 353.464844 278.613281 353.464844 L 310.84375 353.464844 L 310.84375 332.078125 L 278.613281 332.078125 C 272.589844 332.078125 267.769531 327.257812 267.769531 321.234375 L 267.769531 289.308594 L 246.386719 289.308594 L 246.386719 321.535156 C 246.386719 327.558594 241.566406 332.378906 235.542969 332.378906 L 203.613281 332.378906 L 203.613281 353.765625 L 235.84375 353.765625 C 241.867188 353.765625 246.6875 358.585938 246.6875 364.609375 L 246.6875 396.234375 Z M 246.386719 396.234375 " fill-opacity="1" fill-rule="nonzero"/><path fill="#f2f2f2" d="M 671.085938 326.054688 L 606.925781 234.1875 C 603.011719 228.464844 596.386719 225.152344 589.457031 225.152344 L 568.070312 225.152344 L 568.070312 214.308594 C 567.769531 196.535156 553.3125 182.078125 535.84375 182.078125 C 518.375 182.078125 503.613281 196.535156 503.613281 214.308594 L 503.613281 225.152344 L 460.84375 225.152344 L 460.84375 203.464844 C 460.84375 191.71875 451.203125 182.078125 439.457031 182.078125 L 96.386719 182.078125 C 84.636719 182.078125 75 191.71875 75 203.464844 L 75 503.464844 C 75 515.210938 84.636719 524.847656 96.386719 524.847656 L 139.15625 524.847656 C 140.363281 524.847656 141.566406 524.246094 142.769531 524.246094 C 151.507812 549.546875 175.300781 567.921875 203.3125 567.921875 C 231.324219 567.921875 254.820312 549.847656 263.554688 525.152344 L 485.542969 525.152344 C 494.277344 550.152344 518.074219 567.921875 545.78125 567.921875 C 573.492188 567.921875 597.289062 549.847656 606.023438 525.152344 L 652.710938 525.152344 C 664.457031 525.152344 674.097656 515.511719 674.097656 503.765625 L 674.097656 338.402344 C 675 333.886719 673.796875 329.667969 671.085938 326.054688 Z M 203.613281 524.847656 C 191.867188 524.847656 182.230469 515.210938 182.230469 503.464844 C 182.230469 491.71875 191.867188 482.078125 203.613281 482.078125 C 215.363281 482.078125 225 491.71875 225 503.464844 C 225 515.210938 215.363281 524.847656 203.613281 524.847656 Z M 417.769531 246.234375 L 417.769531 482.078125 L 263.855469 482.078125 C 255.121094 457.078125 231.324219 439.308594 203.613281 439.308594 C 175.300781 439.308594 151.808594 457.679688 143.074219 482.980469 C 141.867188 482.679688 140.664062 482.378906 139.457031 482.378906 L 118.074219 482.378906 L 118.074219 224.847656 L 418.070312 224.847656 L 418.070312 246.234375 Z M 525 214.308594 C 525 208.28125 529.820312 203.464844 535.84375 203.464844 C 541.867188 203.464844 546.6875 208.28125 546.6875 214.308594 L 546.6875 225.152344 L 525.300781 225.152344 L 525.300781 214.308594 Z M 546.386719 524.847656 C 534.636719 524.847656 525 515.210938 525 503.464844 C 525 491.71875 534.636719 482.078125 546.386719 482.078125 C 558.132812 482.078125 567.769531 491.71875 567.769531 503.464844 C 567.769531 515.210938 558.132812 524.847656 546.386719 524.847656 Z M 632.230469 482.078125 L 606.925781 482.078125 C 598.191406 457.078125 574.398438 439.308594 546.6875 439.308594 C 518.976562 439.308594 495.179688 457.378906 486.445312 482.078125 L 461.144531 482.078125 L 461.144531 267.921875 L 578.613281 267.921875 L 632.230469 345.03125 Z M 632.230469 482.078125 " fill-opacity="1" fill-rule="nonzero"/></svg>