<svg xmlns="http://www.w3.org/2000/svg" xmlns:xlink="http://www.w3.org/1999/xlink" width="1000" zoomAndPan="magnify" viewBox="0 0 750 749.999995" height="1000" preserveAspectRatio="xMidYMid meet" version="1.0"><defs><clipPath id="b034eb00f1"><path d="M 82 116.625 L 620 116.625 L 620 633.375 L 82 633.375 Z M 82 116.625 " clip-rule="nonzero"/></clipPath></defs><path fill="#bf8abc" d="M 397.792969 418.273438 L 398.410156 417.660156 C 407.03125 409.035156 406.417969 394.558594 397.175781 385.316406 L 329.722656 318.171875 C 320.484375 308.933594 306.007812 308.316406 297.691406 316.941406 L 297.074219 317.554688 C 281.671875 332.957031 260.113281 340.347656 237.320312 339.117188 C 194.507812 336.34375 152.308594 353.285156 125.820312 390.863281 C 78.695312 457.390625 107.03125 567.042969 202.515625 602.773438 C 244.40625 618.480469 289.988281 614.167969 323.5625 590.761719 C 362.679688 563.65625 379.929688 520.226562 376.230469 476.179688 C 374.382812 454.003906 383.007812 433.058594 397.792969 418.273438 Z M 397.792969 418.273438 " fill-opacity="1" fill-rule="nonzero"/><path fill="#bf8abc" d="M 364.21875 352.667969 L 139.066406 558.109375 C 155.082031 576.898438 176.027344 592.609375 202.515625 602.464844 C 244.40625 618.171875 289.988281 613.859375 323.5625 590.453125 C 362.679688 563.347656 379.929688 519.917969 376.230469 475.871094 C 374.382812 453.695312 383.007812 433.058594 397.792969 418.273438 L 398.410156 417.660156 C 407.03125 409.035156 406.417969 394.558594 397.175781 385.316406 Z M 364.21875 352.667969 " fill-opacity="1" fill-rule="nonzero"/><path fill="#81a9dd" d="M 386.394531 374.539062 L 340.8125 328.953125 L 543.171875 148.152344 C 556.109375 135.214844 576.746094 134.90625 589.375 147.535156 C 602.003906 160.164062 601.695312 180.800781 588.757812 193.738281 Z M 386.394531 374.539062 " fill-opacity="1" fill-rule="nonzero"/><path fill="#6f92bf" d="M 589.066406 336.34375 C 572.742188 354.515625 524.691406 399.792969 524.691406 441.066406 C 524.691406 482.339844 553.644531 508.214844 589.066406 508.214844 C 624.792969 508.214844 653.4375 482.339844 653.4375 441.066406 C 653.746094 399.792969 606.007812 355.132812 589.066406 336.34375 Z M 589.066406 336.34375 " fill-opacity="1" fill-rule="nonzero"/><path fill="#6f92bf" d="M 589.375 147.535156 L 364.527344 352.363281 L 386.703125 374.539062 L 588.757812 193.738281 C 601.695312 180.800781 602.003906 160.164062 589.375 147.535156 Z M 589.375 147.535156 " fill-opacity="1" fill-rule="nonzero"/><path fill="#f2f2f2" d="M 612.167969 329.570312 L 605.082031 322.175781 C 601.078125 317.554688 595.226562 315.09375 589.066406 315.09375 C 582.90625 315.09375 577.363281 317.554688 573.050781 322.175781 L 566.273438 329.261719 C 544.097656 352.667969 502.824219 396.097656 502.824219 441.066406 C 502.824219 492.503906 538.859375 529.773438 588.757812 529.773438 C 638.65625 529.773438 674.691406 492.503906 674.691406 441.066406 C 675 396.097656 634.035156 352.667969 612.167969 329.570312 Z M 589.066406 486.960938 C 563.5 486.960938 546.253906 468.480469 546.253906 441.066406 C 546.253906 417.351562 571.507812 387.167969 589.066406 367.761719 C 606.929688 387.167969 632.1875 417.351562 632.1875 441.066406 C 632.1875 468.480469 614.9375 486.960938 589.066406 486.960938 Z M 589.066406 486.960938 " fill-opacity="1" fill-rule="nonzero"/><g clip-path="url(#b034eb00f1)"><path fill="#f2f2f2" d="M 603.851562 208.828125 C 614.015625 198.664062 619.867188 185.113281 619.867188 170.636719 C 620.175781 156.160156 614.628906 142.609375 604.15625 132.136719 C 594.300781 121.972656 581.058594 116.734375 565.964844 116.734375 C 551.488281 117.042969 537.9375 122.585938 528.695312 132.136719 L 341.117188 299.691406 C 333.417969 293.53125 324.179688 289.835938 314.324219 289.527344 C 302.003906 289.21875 290.605469 293.53125 281.980469 302.464844 C 271.203125 313.246094 255.800781 318.789062 238.859375 317.554688 C 186.5 314.167969 137.832031 336.652344 108.265625 378.234375 C 82.085938 415.195312 75 465.09375 89.167969 511.910156 C 104.875 563.039062 143.378906 603.386719 194.816406 622.484375 C 213.910156 629.570312 233.933594 633.265625 253.027344 633.265625 C 282.90625 633.265625 311.859375 624.640625 335.574219 608.316406 C 378.695312 578.4375 401.796875 528.234375 397.484375 474.332031 C 396.253906 459.242188 401.796875 444.457031 412.886719 433.367188 L 413.5 432.75 C 428.59375 417.660156 429.515625 393.328125 416.890625 375.769531 Z M 558.265625 163.246094 C 560.421875 161.089844 563.5 159.855469 566.582031 159.855469 C 568.429688 159.855469 571.507812 160.164062 573.972656 162.9375 C 576.746094 165.707031 577.054688 168.789062 577.054688 170.328125 C 577.054688 173.410156 575.820312 176.179688 574.28125 177.722656 L 387.320312 344.96875 L 372.226562 329.875 Z M 382.699219 402.875 C 362.679688 422.894531 352.824219 450 354.980469 477.414062 C 358.058594 516.53125 342.351562 551.027344 311.550781 572.585938 C 284.136719 591.683594 245.328125 595.070312 210.214844 582.136719 C 171.40625 567.660156 142.453125 537.167969 130.75 498.972656 C 120.277344 464.785156 125.207031 429.054688 143.6875 402.875 C 163.089844 375.152344 193.890625 359.753906 228.386719 359.753906 C 230.851562 359.753906 233.625 359.753906 236.394531 360.0625 C 265.347656 361.910156 293.070312 352.054688 312.78125 332.03125 C 313.089844 332.03125 314.015625 332.03125 314.9375 333.265625 L 382.085938 400.410156 C 383.007812 401.335938 383.316406 402.566406 383.625 402.257812 Z M 382.699219 402.875 " fill-opacity="1" fill-rule="nonzero"/></g></svg>