<svg xmlns="http://www.w3.org/2000/svg" xmlns:xlink="http://www.w3.org/1999/xlink" width="1000" zoomAndPan="magnify" viewBox="0 0 750 749.999995" height="1000" preserveAspectRatio="xMidYMid meet" version="1.0"><defs><clipPath id="8b90ec5053"><path d="M 96.75 75 L 653.25 75 L 653.25 675 L 96.75 675 Z M 96.75 75 " clip-rule="nonzero"/></clipPath></defs><path fill="#bf8abc" d="M 182.390625 439.308594 L 182.390625 628.515625 C 182.390625 642.121094 194.445312 653.25 208.976562 653.25 L 540.402344 653.25 C 555.246094 653.25 566.992188 642.429688 566.992188 628.515625 L 566.992188 207.433594 C 566.992188 193.828125 554.933594 182.699219 540.402344 182.699219 L 209.285156 182.699219 C 194.445312 182.699219 182.699219 193.519531 182.699219 207.433594 L 182.699219 439.308594 Z M 182.390625 439.308594 " fill-opacity="1" fill-rule="nonzero"/><path fill="#bf8abc" d="M 540.714844 182.699219 L 374.691406 182.699219 L 374.691406 653.25 L 540.402344 653.25 C 555.246094 653.25 566.992188 642.429688 566.992188 628.515625 L 566.992188 207.433594 C 567.300781 193.519531 555.246094 182.699219 540.714844 182.699219 Z M 540.714844 182.699219 " fill-opacity="1" fill-rule="nonzero"/><path fill="#81a9dd" d="M 453.21875 140.035156 L 417.664062 140.035156 C 417.664062 116.535156 398.496094 97.367188 375 97.367188 C 351.503906 97.367188 332.335938 116.535156 332.335938 140.035156 L 296.472656 140.035156 C 280.703125 140.035156 267.71875 149.617188 267.71875 161.675781 L 267.71875 225.363281 L 481.664062 225.363281 L 481.664062 161.675781 C 481.664062 149.617188 468.988281 140.035156 453.21875 140.035156 Z M 453.21875 140.035156 " fill-opacity="1" fill-rule="nonzero"/><path fill="#6f92bf" d="M 453.21875 140.035156 L 417.664062 140.035156 C 417.664062 116.535156 398.496094 97.367188 375 97.367188 L 375 225.671875 L 481.972656 225.671875 L 481.972656 161.675781 C 481.664062 149.617188 468.988281 140.035156 453.21875 140.035156 Z M 453.21875 140.035156 " fill-opacity="1" fill-rule="nonzero"/><g clip-path="url(#8b90ec5053)"><path fill="#f2f2f2" d="M 652.941406 396.640625 L 588.632812 396.640625 L 588.632812 207.121094 C 588.632812 181.769531 566.992188 161.058594 540.402344 161.058594 L 502.996094 161.058594 C 502.996094 136.941406 481.042969 118.390625 452.910156 118.390625 L 434.976562 118.390625 C 426.628906 93.660156 402.824219 75.726562 374.691406 75.726562 C 346.558594 75.726562 323.058594 93.660156 314.402344 118.390625 L 296.472656 118.390625 C 268.648438 118.390625 246.695312 137.25 246.386719 161.058594 L 208.976562 161.058594 C 182.390625 161.058594 160.746094 181.769531 160.746094 207.121094 L 160.746094 396.332031 L 96.75 396.332031 L 96.75 438.996094 L 161.058594 438.996094 L 161.058594 628.207031 C 161.058594 653.558594 182.699219 674.273438 209.285156 674.273438 L 540.714844 674.273438 C 567.300781 674.273438 588.941406 653.558594 588.941406 628.207031 L 588.941406 438.996094 L 653.25 438.996094 L 653.25 396.640625 Z M 332.027344 161.367188 C 343.773438 161.367188 353.359375 151.78125 353.359375 140.035156 C 353.359375 128.285156 362.941406 118.699219 374.691406 118.699219 C 386.4375 118.699219 396.023438 128.285156 396.023438 140.035156 C 396.023438 151.78125 405.609375 161.367188 417.355469 161.367188 L 452.910156 161.367188 C 456.621094 161.367188 459.09375 162.292969 460.019531 163.222656 L 460.019531 204.03125 L 289.359375 204.03125 L 289.359375 163.222656 C 290.597656 162.292969 293.070312 161.367188 296.472656 161.367188 Z M 208.976562 204.03125 L 246.386719 204.03125 L 246.386719 225.363281 C 246.386719 237.113281 255.972656 246.695312 267.71875 246.695312 L 481.664062 246.695312 C 493.410156 246.695312 502.996094 237.113281 502.996094 225.363281 L 502.996094 204.03125 L 540.402344 204.03125 C 543.804688 204.03125 545.660156 205.886719 545.660156 207.121094 L 545.660156 396.332031 L 525.253906 396.332031 L 492.175781 343.773438 C 488.15625 337.28125 480.425781 333.261719 472.386719 333.878906 C 464.347656 334.191406 457.546875 339.445312 454.457031 346.867188 L 427.867188 408.082031 L 392.933594 323.988281 C 389.53125 315.949219 380.875 310.691406 372.527344 311.003906 C 363.871094 311.3125 355.832031 316.875 353.050781 325.222656 L 312.546875 438.070312 L 276.996094 346.246094 C 274.210938 338.828125 267.71875 333.570312 259.679688 332.644531 C 251.640625 331.714844 243.914062 335.117188 239.585938 341.609375 L 203.722656 393.242188 L 203.722656 207.121094 C 203.722656 205.886719 205.886719 204.03125 208.976562 204.03125 Z M 540.714844 631.917969 L 208.976562 631.917969 C 205.578125 631.917969 203.722656 630.0625 203.722656 628.824219 L 203.722656 439.617188 L 211.449219 439.617188 C 218.5625 439.617188 224.746094 436.214844 228.765625 430.648438 L 250.097656 400.042969 L 291.214844 506.394531 C 294.308594 514.742188 302.347656 520 311.003906 520 C 311.3125 520 311.3125 520 311.3125 520 C 319.96875 520 328.007812 514.433594 331.097656 506.085938 L 371.910156 391.695312 L 405.296875 470.53125 C 408.699219 478.261719 416.429688 483.515625 424.777344 483.515625 C 433.125 483.515625 440.851562 478.570312 444.253906 470.839844 L 474.242188 401.898438 L 491.554688 429.722656 C 495.574219 435.90625 502.375 439.617188 509.488281 439.617188 L 545.96875 439.617188 L 545.96875 628.824219 C 545.96875 630.0625 543.804688 631.917969 540.714844 631.917969 Z M 540.714844 631.917969 " fill-opacity="1" fill-rule="nonzero"/></g></svg>