<svg xmlns="http://www.w3.org/2000/svg" xmlns:xlink="http://www.w3.org/1999/xlink" width="1000" zoomAndPan="magnify" viewBox="0 0 750 749.999995" height="1000" preserveAspectRatio="xMidYMid meet" version="1.0"><path fill="#dda2d9" d="M 267.695312 96.3125 L 482.003906 96.3125 L 482.003906 653.6875 L 267.695312 653.6875 Z M 267.695312 96.3125 " fill-opacity="1" fill-rule="nonzero"/><path fill="#bf8abc" d="M 374.851562 96.3125 L 482.003906 96.3125 L 482.003906 653.6875 L 374.851562 653.6875 Z M 374.851562 96.3125 " fill-opacity="1" fill-rule="nonzero"/><path fill="#6f92bf" d="M 96.011719 353.839844 L 267.394531 353.839844 L 267.394531 653.988281 L 96.011719 653.988281 Z M 96.011719 353.839844 " fill-opacity="1" fill-rule="nonzero"/><path fill="#6f92bf" d="M 331.929688 503.914062 L 417.769531 503.914062 L 417.769531 653.988281 L 331.929688 653.988281 Z M 331.929688 503.914062 " fill-opacity="1" fill-rule="nonzero"/><path fill="#6f92bf" d="M 396.160156 184.855469 L 396.160156 141.933594 L 353.539062 141.933594 L 353.539062 184.855469 L 310.617188 184.855469 L 310.617188 227.777344 L 353.539062 227.777344 L 353.539062 270.699219 L 396.160156 270.699219 L 396.160156 227.777344 L 439.082031 227.777344 L 439.082031 184.855469 Z M 396.160156 184.855469 " fill-opacity="1" fill-rule="nonzero"/><path fill="#6f92bf" d="M 482.003906 353.839844 L 653.390625 353.839844 L 653.390625 653.988281 L 482.003906 653.988281 Z M 482.003906 353.839844 " fill-opacity="1" fill-rule="nonzero"/><path fill="#6f92bf" d="M 374.851562 503.914062 L 417.769531 503.914062 L 417.769531 653.988281 L 374.851562 653.988281 Z M 374.851562 503.914062 " fill-opacity="1" fill-rule="nonzero"/><path fill="#6f92bf" d="M 396.160156 141.933594 L 374.851562 141.933594 L 374.851562 270.699219 L 396.160156 270.699219 L 396.160156 227.777344 L 439.082031 227.777344 L 439.082031 184.855469 L 396.160156 184.855469 Z M 396.160156 141.933594 " fill-opacity="1" fill-rule="nonzero"/><path fill="#f2f2f2" d="M 653.6875 332.230469 L 503.613281 332.230469 L 503.613281 96.3125 C 503.613281 84.605469 494.007812 75 482.304688 75 L 267.695312 75 C 255.992188 75 246.386719 84.605469 246.386719 96.3125 L 246.386719 332.230469 L 96.3125 332.230469 C 84.605469 332.230469 75 341.832031 75 353.539062 L 75 653.6875 C 75 665.394531 84.605469 675 96.3125 675 L 653.390625 675 C 665.09375 675 674.699219 665.394531 674.699219 653.6875 L 674.699219 353.539062 C 675 341.832031 665.394531 332.230469 653.6875 332.230469 Z M 246.085938 632.378906 L 117.621094 632.378906 L 117.621094 375.148438 L 246.386719 375.148438 L 246.386719 632.378906 Z M 396.160156 632.378906 L 353.539062 632.378906 L 353.539062 525.226562 L 396.460938 525.226562 L 396.460938 632.378906 Z M 460.691406 353.839844 L 460.691406 632.679688 L 439.382812 632.679688 L 439.382812 503.914062 C 439.382812 492.207031 429.777344 482.605469 418.070312 482.605469 L 331.929688 482.605469 C 320.222656 482.605469 310.617188 492.207031 310.617188 503.914062 L 310.617188 632.679688 L 289.308594 632.679688 L 289.308594 332.527344 L 460.691406 332.527344 Z M 460.691406 289.308594 L 289.007812 289.308594 L 289.007812 117.921875 L 460.394531 117.921875 L 460.394531 289.308594 Z M 632.078125 632.378906 L 503.3125 632.378906 L 503.3125 375.148438 L 632.078125 375.148438 Z M 632.078125 632.378906 " fill-opacity="1" fill-rule="nonzero"/><path fill="#f2f2f2" d="M 138.933594 396.460938 L 224.773438 396.460938 L 224.773438 439.382812 L 138.933594 439.382812 Z M 138.933594 396.460938 " fill-opacity="1" fill-rule="nonzero"/><path fill="#f2f2f2" d="M 138.933594 460.992188 L 224.773438 460.992188 L 224.773438 503.914062 L 138.933594 503.914062 Z M 138.933594 460.992188 " fill-opacity="1" fill-rule="nonzero"/><path fill="#f2f2f2" d="M 138.933594 525.226562 L 224.773438 525.226562 L 224.773438 568.148438 L 138.933594 568.148438 Z M 138.933594 525.226562 " fill-opacity="1" fill-rule="nonzero"/><path fill="#f2f2f2" d="M 524.925781 396.460938 L 610.769531 396.460938 L 610.769531 439.382812 L 524.925781 439.382812 Z M 524.925781 396.460938 " fill-opacity="1" fill-rule="nonzero"/><path fill="#f2f2f2" d="M 331.929688 353.839844 L 417.769531 353.839844 L 417.769531 396.761719 L 331.929688 396.761719 Z M 331.929688 353.839844 " fill-opacity="1" fill-rule="nonzero"/><path fill="#f2f2f2" d="M 331.929688 418.070312 L 417.769531 418.070312 L 417.769531 460.992188 L 331.929688 460.992188 Z M 331.929688 418.070312 " fill-opacity="1" fill-rule="nonzero"/><path fill="#f2f2f2" d="M 524.925781 460.992188 L 610.769531 460.992188 L 610.769531 503.914062 L 524.925781 503.914062 Z M 524.925781 460.992188 " fill-opacity="1" fill-rule="nonzero"/><path fill="#f2f2f2" d="M 524.925781 525.226562 L 610.769531 525.226562 L 610.769531 568.148438 L 524.925781 568.148438 Z M 524.925781 525.226562 " fill-opacity="1" fill-rule="nonzero"/><path fill="#f2f2f2" d="M 310.617188 238.582031 L 342.734375 238.582031 L 342.734375 270.699219 C 342.734375 276.699219 347.535156 281.503906 353.539062 281.503906 L 396.460938 281.503906 C 402.464844 281.503906 407.265625 276.699219 407.265625 270.699219 L 407.265625 238.582031 L 439.382812 238.582031 C 445.386719 238.582031 450.1875 233.78125 450.1875 227.777344 L 450.1875 184.855469 C 450.1875 178.851562 445.386719 174.050781 439.382812 174.050781 L 407.265625 174.050781 L 407.265625 141.933594 C 407.265625 135.929688 402.464844 131.128906 396.460938 131.128906 L 353.539062 131.128906 C 347.535156 131.128906 342.734375 135.929688 342.734375 141.933594 L 342.734375 174.050781 L 310.617188 174.050781 C 304.613281 174.050781 299.8125 178.851562 299.8125 184.855469 L 299.8125 227.777344 C 299.8125 233.78125 304.613281 238.582031 310.617188 238.582031 Z M 321.125 195.660156 L 353.238281 195.660156 C 359.242188 195.660156 364.042969 190.859375 364.042969 184.855469 L 364.042969 152.738281 L 385.355469 152.738281 L 385.355469 184.855469 C 385.355469 190.859375 390.15625 195.660156 396.160156 195.660156 L 428.277344 195.660156 L 428.277344 216.972656 L 396.160156 216.972656 C 390.15625 216.972656 385.355469 221.773438 385.355469 227.777344 L 385.355469 259.890625 L 364.042969 259.890625 L 364.042969 227.777344 C 364.042969 221.773438 359.242188 216.972656 353.238281 216.972656 L 321.125 216.972656 Z M 321.125 195.660156 " fill-opacity="1" fill-rule="nonzero"/></svg>