<svg xmlns="http://www.w3.org/2000/svg" xmlns:xlink="http://www.w3.org/1999/xlink" width="1000" zoomAndPan="magnify" viewBox="0 0 750 749.999995" height="1000" preserveAspectRatio="xMidYMid meet" version="1.0"><path fill="#81a9dd" d="M 274.074219 567.734375 L 182.265625 475.925781 L 410.085938 248.105469 C 411.011719 247.179688 412.867188 247.179688 413.792969 248.105469 L 501.894531 336.207031 C 502.820312 337.132812 502.820312 338.988281 501.894531 339.914062 Z M 274.074219 567.734375 " fill-opacity="1" fill-rule="nonzero"/><path fill="#6f92bf" d="M 456.144531 290.148438 L 226.46875 519.820312 L 274.382812 567.734375 L 488.601562 353.207031 C 496.949219 344.859375 496.949219 330.949219 488.601562 322.605469 Z M 456.144531 290.148438 " fill-opacity="1" fill-rule="nonzero"/><path fill="#bf8abc" d="M 533.734375 275.925781 L 474.074219 216.265625 C 473.761719 215.957031 472.835938 215.957031 472.527344 216.265625 L 427.394531 261.089844 L 488.601562 322.296875 L 533.734375 277.164062 C 534.351562 276.855469 534.351562 276.238281 533.734375 275.925781 Z M 533.734375 275.925781 " fill-opacity="1" fill-rule="nonzero"/><path fill="#bf8abc" d="M 502.203125 244.089844 L 456.144531 290.148438 L 488.601562 322.605469 L 528.476562 282.726562 C 531.878906 279.328125 531.878906 273.761719 528.476562 270.363281 Z M 502.203125 244.089844 " fill-opacity="1" fill-rule="nonzero"/><path fill="#f2f2f2" d="M 543.625 254.90625 L 526.933594 238.214844 L 675 90.457031 L 659.542969 75 L 511.476562 223.066406 L 494.785156 206.375 C 483.039062 194.628906 463.5625 194.628906 451.816406 206.375 L 423.378906 234.816406 C 408.847656 231.105469 392.773438 234.816406 381.644531 245.941406 L 182.574219 445.015625 L 136.515625 398.957031 L 105.910156 429.558594 L 167.117188 490.765625 L 136.515625 521.367188 L 105.910156 490.765625 L 75 521.675781 L 151.660156 598.339844 L 182.265625 628.941406 L 228.324219 675 L 258.925781 644.398438 L 228.324219 613.792969 L 258.925781 583.191406 L 320.132812 644.398438 L 350.734375 613.792969 L 304.675781 567.734375 L 503.75 368.664062 C 514.875 357.226562 518.585938 341.460938 514.875 326.933594 L 543.625 298.183594 C 555.371094 286.128906 555.371094 266.964844 543.625 254.90625 Z M 182.265625 567.734375 L 166.808594 552.28125 L 197.410156 521.675781 L 228.015625 552.28125 L 197.410156 582.882812 Z M 473.453125 245.941406 L 504.058594 276.546875 L 488.601562 292 L 458 261.398438 Z M 274.074219 537.132812 L 212.867188 475.925781 L 235.742188 453.050781 L 271.910156 489.21875 L 287.363281 473.761719 L 251.199219 437.289062 L 281.800781 406.683594 L 304.367188 429.558594 L 319.820312 414.414062 L 297.257812 391.539062 L 322.605469 366.191406 L 358.769531 402.355469 L 374.226562 386.902344 L 337.75 350.734375 L 368.355469 320.132812 L 390.917969 343.007812 L 406.375 327.859375 L 383.808594 304.984375 L 411.941406 276.855469 L 473.453125 337.75 Z M 274.074219 537.132812 " fill-opacity="1" fill-rule="nonzero"/></svg>