<svg xmlns="http://www.w3.org/2000/svg" xmlns:xlink="http://www.w3.org/1999/xlink" width="1000" zoomAndPan="magnify" viewBox="0 0 750 749.999995" height="1000" preserveAspectRatio="xMidYMid meet" version="1.0"><path fill="#bf8abc" d="M 96.472656 428.855469 L 182.359375 428.855469 L 182.359375 643.574219 L 96.472656 643.574219 Z M 96.472656 428.855469 " fill-opacity="1" fill-rule="nonzero"/><path fill="#6f92bf" d="M 182.359375 449.417969 L 267.640625 424.015625 L 372.882812 449.417969 C 423.386719 462.421875 411.894531 536.515625 353.832031 527.140625 C 351.714844 526.839844 331.148438 523.511719 340.523438 525.023438 C 367.441406 529.257812 439.71875 542.566406 439.71875 542.566406 C 439.71875 542.566406 569.152344 468.472656 590.019531 456.675781 C 631.753906 430.972656 675 477.242188 611.492188 527.746094 C 592.742188 544.078125 512.601562 610.609375 477.519531 639.035156 C 469.960938 645.085938 458.164062 648.714844 451.210938 647.503906 C 407.660156 639.035156 269.757812 598.816406 269.757812 598.816406 L 182.054688 616.960938 L 182.054688 449.417969 Z M 182.359375 449.417969 " fill-opacity="1" fill-rule="nonzero"/><path fill="#bf8abc" d="M 601.210938 277.949219 C 601.210938 349.015625 543.449219 393.773438 472.378906 393.773438 C 401.308594 393.773438 343.546875 349.015625 343.546875 277.949219 C 343.546875 206.878906 429.433594 119.175781 472.378906 97.707031 C 515.324219 119.175781 601.210938 206.878906 601.210938 277.949219 Z M 601.210938 277.949219 " fill-opacity="1" fill-rule="nonzero"/><path fill="#6f92bf" d="M 536.792969 246.496094 L 493.851562 246.496094 L 493.851562 203.550781 L 450.90625 203.550781 L 450.90625 246.496094 L 407.964844 246.496094 L 407.964844 289.441406 L 450.90625 289.441406 L 450.90625 332.382812 L 493.851562 332.382812 L 493.851562 289.441406 L 536.792969 289.441406 Z M 536.792969 246.496094 " fill-opacity="1" fill-rule="nonzero"/><path fill="#f2f2f2" d="M 656.550781 448.210938 C 640.222656 424.921875 606.957031 420.691406 580.039062 437.324219 C 561.894531 447.300781 463.304688 503.855469 436.390625 519.582031 C 432.15625 518.671875 426.410156 517.765625 420.058594 516.554688 C 422.480469 511.71875 424.292969 506.578125 425.503906 501.132812 C 431.25 473.308594 417.035156 438.230469 378.328125 428.25 L 272.78125 402.847656 C 269.152344 401.941406 265.222656 401.941406 261.59375 403.148438 L 202.621094 420.691406 C 199.597656 412.828125 191.734375 407.082031 182.660156 407.082031 L 96.472656 407.082031 C 84.675781 407.082031 75 416.757812 75 428.550781 L 75 643.269531 C 75 655.0625 84.675781 664.742188 96.472656 664.742188 L 182.359375 664.742188 C 194.152344 664.742188 203.832031 655.066406 203.832031 643.269531 L 203.832031 633.59375 L 269.152344 619.984375 C 294.859375 627.542969 407.660156 659.902344 447.582031 667.765625 C 450 668.070312 452.417969 668.371094 454.839844 668.371094 C 468.144531 668.371094 482.660156 662.019531 491.734375 654.761719 C 526.816406 626.03125 607.257812 559.199219 625.402344 543.472656 C 671.976562 506.878906 671.371094 469.078125 656.550781 448.210938 Z M 160.886719 622.101562 L 117.945312 622.101562 L 117.945312 450.328125 L 160.886719 450.328125 Z M 601.511719 510.808594 C 583.066406 526.839844 502.015625 594.277344 466.933594 622.707031 C 464.214844 624.824219 459.074219 626.636719 458.164062 626.636719 C 415.523438 618.472656 278.226562 578.550781 277.015625 577.949219 C 274.898438 577.34375 273.085938 577.039062 270.96875 577.039062 C 269.457031 577.039062 267.945312 577.039062 266.734375 577.34375 L 204.433594 590.347656 L 204.433594 464.539062 L 269.457031 445.183594 L 369.859375 469.378906 C 384.074219 473.007812 387.097656 483.894531 385.585938 492.058594 C 384.675781 497.203125 379.839844 508.695312 359.878906 505.367188 C 354.738281 504.460938 349.898438 503.550781 346.269531 502.949219 C 345.96875 502.949219 345.363281 502.949219 345.058594 502.644531 L 344.152344 502.644531 C 322.378906 500.527344 319.050781 519.582031 318.75 520.488281 C 316.027344 536.820312 326.007812 542.261719 339.316406 545.589844 L 339.316406 545.890625 C 341.429688 546.195312 343.546875 546.496094 345.96875 547.101562 C 348.085938 547.402344 350.503906 548.007812 352.621094 548.308594 C 352.621094 548.308594 352.921875 548.308594 352.921875 548.308594 C 384.980469 553.753906 439.113281 563.429688 439.113281 563.429688 C 443.953125 564.339844 449.394531 563.429688 453.628906 561.011719 C 453.628906 561.011719 583.972656 486.3125 606.046875 473.914062 C 616.027344 467.867188 623.890625 469.378906 626.007812 472.402344 C 628.125 476.636719 626.308594 491.152344 601.511719 510.808594 Z M 601.511719 510.808594 " fill-opacity="1" fill-rule="nonzero"/><path fill="#f2f2f2" d="M 472.378906 415.546875 C 559.476562 415.546875 622.679688 357.785156 622.679688 278.25 C 622.679688 198.109375 531.652344 103.453125 482.054688 78.652344 C 476.007812 75.628906 468.75 75.628906 462.703125 78.652344 C 413.105469 103.453125 322.078125 198.109375 322.078125 278.25 C 322.078125 357.785156 385.28125 415.546875 472.378906 415.546875 Z M 472.378906 122.503906 C 513.808594 149.117188 579.738281 223.210938 579.738281 278.25 C 579.738281 333.894531 535.585938 372.605469 472.378906 372.605469 C 409.171875 372.605469 365.019531 333.59375 365.019531 277.949219 C 365.019531 223.210938 430.644531 149.117188 472.378906 122.503906 Z M 472.378906 122.503906 " fill-opacity="1" fill-rule="nonzero"/><path fill="#f2f2f2" d="M 407.964844 300.023438 L 440.324219 300.023438 L 440.324219 332.382812 C 440.324219 338.429688 445.160156 343.269531 451.210938 343.269531 L 494.152344 343.269531 C 500.203125 343.269531 505.039062 338.429688 505.039062 332.382812 L 505.039062 300.023438 L 537.398438 300.023438 C 543.449219 300.023438 548.285156 295.183594 548.285156 289.136719 L 548.285156 246.496094 C 548.285156 240.449219 543.449219 235.609375 537.398438 235.609375 L 504.433594 235.609375 L 504.433594 203.550781 C 504.433594 197.503906 499.597656 192.664062 493.546875 192.664062 L 450.605469 192.664062 C 444.554688 192.664062 439.71875 197.503906 439.71875 203.550781 L 439.71875 235.910156 L 407.359375 235.910156 C 401.308594 235.910156 396.472656 240.75 396.472656 246.796875 L 396.472656 289.742188 C 397.078125 295.183594 401.914062 300.023438 407.964844 300.023438 Z M 418.546875 257.082031 L 450.90625 257.082031 C 456.957031 257.082031 461.792969 252.242188 461.792969 246.195312 L 461.792969 214.136719 L 483.265625 214.136719 L 483.265625 246.496094 C 483.265625 252.542969 488.105469 257.382812 494.152344 257.382812 L 526.511719 257.382812 L 526.511719 278.855469 L 494.152344 278.855469 C 488.105469 278.855469 483.265625 283.695312 483.265625 289.742188 L 483.265625 322.101562 L 461.792969 322.101562 L 461.792969 289.441406 C 461.792969 283.390625 456.957031 278.550781 450.90625 278.550781 L 418.546875 278.550781 Z M 418.546875 257.082031 " fill-opacity="1" fill-rule="nonzero"/></svg>