<svg xmlns="http://www.w3.org/2000/svg" xmlns:xlink="http://www.w3.org/1999/xlink" width="1000" zoomAndPan="magnify" viewBox="0 0 750 749.999995" height="1000" preserveAspectRatio="xMidYMid meet" version="1.0"><path fill="#bf8abc" d="M 378.898438 544.949219 C 392.398438 544.949219 405.300781 543.449219 417.601562 540.75 L 417.601562 595.050781 C 417.601562 602.851562 411.300781 609.148438 403.5 609.148438 L 346.5 609.148438 C 338.699219 609.148438 332.398438 602.851562 332.398438 595.050781 L 332.398438 540.75 C 344.699219 543.449219 357.898438 544.949219 371.101562 544.949219 Z M 378.898438 544.949219 " fill-opacity="1" fill-rule="nonzero"/><path fill="#81a9dd" d="M 232.199219 160.949219 L 517.800781 160.949219 C 533.398438 160.949219 545.699219 172.351562 545.699219 186.449219 L 545.699219 391.351562 C 545.699219 463.949219 491.101562 524.550781 417.601562 540.75 C 405.300781 543.449219 392.101562 544.949219 378.898438 544.949219 L 371.101562 544.949219 C 357.601562 544.949219 344.699219 543.449219 332.398438 540.75 C 260.398438 525.148438 206.398438 466.351562 204.601562 395.550781 C 204.300781 394.050781 204.300781 392.851562 204.300781 391.351562 L 204.300781 186.75 C 204.300781 172.648438 216.601562 160.949219 232.199219 160.949219 Z M 311.101562 366.75 C 311.101562 407.851562 339.601562 433.648438 375 433.648438 C 410.398438 433.648438 438.898438 407.851562 438.898438 366.75 C 438.898438 325.648438 391.800781 281.25 375 262.949219 C 358.800781 280.949219 311.101562 325.949219 311.101562 366.75 Z M 311.101562 366.75 " fill-opacity="1" fill-rule="nonzero"/><path fill="#bf8abc" d="M 438.898438 366.75 C 438.898438 407.851562 410.398438 433.648438 375 433.648438 C 339.601562 433.648438 311.101562 407.851562 311.101562 366.75 C 311.101562 325.648438 358.800781 280.949219 375 262.949219 C 391.800781 281.25 438.898438 325.949219 438.898438 366.75 Z M 438.898438 366.75 " fill-opacity="1" fill-rule="nonzero"/><path fill="#bf8abc" d="M 378.898438 544.949219 L 375 544.949219 L 375 608.851562 L 403.5 608.851562 C 411.300781 608.851562 417.601562 602.550781 417.601562 594.75 L 417.601562 540.75 C 405.300781 543.449219 392.398438 544.949219 378.898438 544.949219 Z M 378.898438 544.949219 " fill-opacity="1" fill-rule="nonzero"/><path fill="#6f92bf" d="M 517.800781 160.949219 L 375 160.949219 L 375 263.25 C 391.800781 281.550781 438.898438 326.25 438.898438 367.050781 C 438.898438 407.851562 410.398438 433.949219 375 433.949219 L 375 544.949219 L 378.898438 544.949219 C 392.398438 544.949219 405.300781 543.449219 417.601562 540.75 C 491.101562 524.851562 545.699219 463.949219 545.699219 391.351562 L 545.699219 186.75 C 545.699219 172.648438 533.398438 160.949219 517.800781 160.949219 Z M 517.800781 160.949219 " fill-opacity="1" fill-rule="nonzero"/><path fill="#bf8abc" d="M 375 262.949219 L 375 433.648438 C 410.398438 433.648438 438.898438 407.851562 438.898438 366.75 C 438.898438 325.648438 391.800781 281.25 375 262.949219 Z M 375 262.949219 " fill-opacity="1" fill-rule="nonzero"/><path fill="#f2f2f2" d="M 438.898438 595.050781 L 438.898438 557.25 C 515.101562 533.550781 567 467.550781 567 391.648438 L 567 186.75 C 567 160.949219 544.800781 139.949219 517.800781 139.949219 L 438.898438 139.949219 C 438.898438 104.550781 410.398438 75.75 375 75.75 C 339.601562 75.75 311.101562 104.550781 311.101562 139.648438 L 232.199219 139.648438 C 205.199219 139.648438 183 160.949219 183 186.75 L 183 391.351562 C 183 393.449219 183 395.25 183.300781 397.351562 C 185.699219 470.851562 237.300781 534.449219 311.101562 557.25 L 311.101562 595.050781 C 311.101562 614.550781 327 630.449219 346.5 630.449219 L 357.601562 630.449219 C 366.898438 656.550781 393 674.25 426.898438 674.25 C 451.5 674.25 475.5 664.648438 493.199219 647.550781 C 507.601562 633.75 524.398438 608.550781 524.398438 566.550781 L 481.800781 566.550781 C 481.800781 587.851562 475.5 605.550781 463.5 616.949219 C 453.898438 626.25 440.398438 631.648438 426.898438 631.648438 C 422.699219 631.648438 417.601562 631.050781 412.5 629.25 C 427.800781 625.050781 438.898438 611.25 438.898438 595.050781 Z M 353.699219 587.851562 L 353.699219 565.648438 C 359.398438 566.25 365.398438 566.550781 371.101562 566.550781 L 378.898438 566.550781 C 384.898438 566.550781 390.601562 566.25 396.300781 565.648438 L 396.300781 587.851562 Z M 375 118.351562 C 386.699219 118.351562 396.300781 127.949219 396.300781 139.648438 L 353.699219 139.648438 C 353.699219 127.949219 363.300781 118.351562 375 118.351562 Z M 228.601562 417.148438 L 268.5 417.148438 L 268.5 374.550781 L 225.601562 374.550781 L 225.601562 331.949219 L 268.199219 331.949219 L 268.199219 289.050781 L 225.601562 289.050781 L 225.601562 246.449219 L 268.199219 246.449219 L 268.199219 203.851562 L 225.601562 203.851562 L 225.601562 186.75 C 225.601562 184.648438 228.300781 182.550781 232.199219 182.550781 L 517.800781 182.550781 C 521.699219 182.550781 524.398438 184.949219 524.398438 186.75 L 524.398438 391.648438 C 524.398438 453.148438 478.800781 505.949219 413.101562 520.050781 C 402 522.449219 390.601562 523.648438 378.898438 523.648438 L 371.101562 523.648438 C 359.398438 523.648438 348 522.449219 336.898438 519.75 C 281.101562 507.75 239.101562 466.949219 228.601562 417.148438 Z M 228.601562 417.148438 " fill-opacity="1" fill-rule="nonzero"/><path fill="#f2f2f2" d="M 460.199219 366.75 C 460.199219 321.75 419.101562 278.25 396.898438 255.148438 L 374.699219 231.148438 L 359.101562 248.550781 C 357.300781 250.648438 354.898438 253.050781 352.5 255.75 C 330.601562 278.851562 289.800781 322.050781 289.800781 366.75 C 289.800781 417.75 325.800781 454.949219 375 454.949219 C 424.199219 454.949219 460.199219 418.050781 460.199219 366.75 Z M 332.398438 366.75 C 332.398438 343.351562 357.300781 313.351562 375 294.148438 C 393 313.648438 417.601562 343.351562 417.601562 366.75 C 417.601562 394.050781 400.5 412.050781 375 412.050781 C 349.5 412.050781 332.398438 394.050781 332.398438 366.75 Z M 332.398438 366.75 " fill-opacity="1" fill-rule="nonzero"/></svg>