<svg xmlns="http://www.w3.org/2000/svg" xmlns:xlink="http://www.w3.org/1999/xlink" width="1000" zoomAndPan="magnify" viewBox="0 0 750 749.999995" height="1000" preserveAspectRatio="xMidYMid meet" version="1.0"><path fill="#f2f2f2" d="M 375.066406 647.863281 C 353.425781 647.863281 333.933594 635.070312 325.203125 615.226562 L 300.332031 626.105469 C 313.367188 655.753906 342.664062 675 375.066406 675 C 407.953125 675 437.367188 655.515625 450.164062 625.269531 L 425.171875 614.628906 C 416.5625 634.832031 396.949219 647.863281 375.066406 647.863281 Z M 375.066406 647.863281 " fill-opacity="1" fill-rule="nonzero"/><path fill="#f2f2f2" d="M 641.964844 555.933594 L 570.21875 496.160156 C 567.109375 493.53125 565.316406 489.824219 565.316406 485.757812 L 565.316406 321.742188 C 565.316406 269.261719 544.386719 220.367188 506.363281 184.144531 C 484.003906 162.867188 457.457031 147.804688 428.757812 139.433594 C 429.355469 135.25 429.59375 131.066406 429.238281 126.644531 C 427.203125 103.453125 410.105469 83.726562 387.625 78.707031 C 371.121094 75 354.140625 78.824219 341.109375 89.226562 C 328.195312 99.625 320.78125 115.046875 320.78125 131.664062 C 320.78125 134.414062 321.257812 136.925781 321.617188 139.554688 C 242.21875 163.226562 184.820312 238.058594 184.820312 326.761719 L 184.820312 485.640625 C 184.820312 489.703125 183.027344 493.53125 179.917969 496.039062 L 108.171875 555.8125 C 105.0625 558.441406 103.269531 562.269531 103.269531 566.214844 L 103.269531 579.839844 C 103.269531 587.371094 109.367188 593.46875 116.902344 593.46875 L 633.234375 593.46875 C 640.765625 593.46875 646.867188 587.371094 646.867188 579.839844 L 646.867188 566.214844 C 646.746094 562.269531 644.953125 558.441406 641.964844 555.933594 Z M 347.804688 131.664062 C 347.804688 123.296875 351.511719 115.644531 357.96875 110.386719 C 364.546875 105.125 372.796875 103.210938 381.523438 105.125 C 392.40625 107.636719 401.015625 117.558594 402.09375 128.914062 C 402.210938 130.46875 401.972656 132.023438 401.851562 133.578125 C 390.015625 131.902344 378.058594 131.304688 365.742188 131.785156 C 359.761719 132.023438 353.785156 132.621094 347.925781 133.578125 C 348.042969 132.859375 347.804688 132.261719 347.804688 131.664062 Z M 138.066406 566.332031 L 197.257812 516.960938 C 206.585938 509.191406 211.964844 497.832031 211.964844 485.640625 L 211.964844 326.761719 C 211.964844 236.746094 280.125 162.984375 367.175781 158.921875 C 412.375 156.769531 455.066406 172.789062 487.589844 203.75 C 520.113281 234.832031 538.050781 276.671875 538.050781 321.742188 L 538.050781 485.640625 C 538.050781 497.714844 543.433594 509.191406 552.757812 516.960938 L 611.949219 566.332031 Z M 138.066406 566.332031 " fill-opacity="1" fill-rule="nonzero"/></svg>