<svg xmlns="http://www.w3.org/2000/svg" xmlns:xlink="http://www.w3.org/1999/xlink" width="1000" zoomAndPan="magnify" viewBox="0 0 750 749.999995" height="1000" preserveAspectRatio="xMidYMid meet" version="1.0"><path fill="#bf8abc" d="M 205.433594 585.792969 C 197.9375 588.195312 190.140625 589.09375 182.046875 589.09375 C 134.671875 589.09375 96.289062 550.710938 96.289062 503.335938 C 96.289062 477.546875 107.382812 454.761719 125.375 439.167969 C 107.683594 423.574219 96.289062 400.488281 96.289062 375 C 96.289062 331.820312 128.074219 296.140625 169.453125 290.441406 C 163.15625 276.648438 160.457031 261.65625 160.457031 246.664062 C 160.457031 199.289062 198.839844 160.90625 246.214844 160.90625 C 246.214844 125.226562 275 96.738281 310.382812 96.738281 C 345.765625 96.738281 374.851562 125.226562 374.851562 160.90625 L 374.851562 568.101562 C 374.851562 615.480469 336.46875 653.859375 289.09375 653.859375 C 248.011719 653.5625 213.832031 624.476562 205.433594 585.792969 Z M 205.433594 585.792969 " fill-opacity="1" fill-rule="nonzero"/><path fill="#bf8abc" d="M 653.410156 375 C 653.410156 331.820312 621.625 296.140625 580.246094 290.441406 C 586.542969 276.648438 589.242188 261.65625 589.242188 246.664062 C 589.242188 199.289062 550.863281 160.90625 503.484375 160.90625 C 503.484375 125.226562 474.699219 96.738281 439.316406 96.738281 C 403.933594 96.738281 374.851562 125.226562 374.851562 160.90625 L 374.851562 568.101562 C 374.851562 615.480469 413.230469 653.859375 460.605469 653.859375 C 501.6875 653.859375 535.871094 625.074219 544.265625 586.09375 C 551.761719 588.492188 559.558594 589.394531 567.652344 589.394531 C 615.03125 589.394531 653.410156 551.011719 653.410156 503.636719 C 653.410156 477.847656 642.316406 455.058594 624.324219 439.46875 C 642.015625 423.574219 653.410156 400.785156 653.410156 375 Z M 653.410156 375 " fill-opacity="1" fill-rule="nonzero"/><path fill="#f2f2f2" d="M 674.699219 375 C 674.699219 330.324219 646.515625 291.042969 607.234375 275.75 C 609.332031 266.453125 610.230469 256.859375 610.230469 246.363281 C 610.230469 193.890625 572.152344 150.113281 522.078125 141.117188 C 513.378906 103.335938 479.496094 75.148438 439.019531 75.148438 C 413.230469 75.148438 390.441406 86.84375 374.851562 104.835938 C 359.257812 86.84375 336.167969 75.148438 310.683594 75.148438 C 270.203125 75.148438 236.320312 103.335938 227.324219 141.417969 C 177.25 150.414062 139.167969 193.890625 139.167969 246.664062 C 139.167969 257.160156 140.367188 266.753906 142.464844 276.050781 C 102.886719 291.941406 75 330.621094 75 375 C 75 398.386719 82.796875 420.878906 96.589844 439.167969 C 82.796875 457.457031 75 479.949219 75 503.636719 C 75 562.707031 122.976562 610.683594 182.046875 610.683594 C 185.046875 610.683594 188.042969 610.382812 191.042969 610.082031 C 207.832031 648.464844 246.214844 674.851562 289.09375 674.851562 C 324.175781 674.851562 355.359375 657.457031 374.851562 631.371094 C 394.339844 657.757812 425.226562 674.851562 460.605469 674.851562 C 503.785156 674.851562 542.167969 648.464844 558.957031 610.082031 C 561.957031 610.382812 564.65625 610.683594 567.953125 610.683594 C 627.023438 610.683594 675 562.707031 675 503.636719 C 675 480.246094 667.203125 457.757812 653.410156 439.46875 C 666.902344 420.878906 674.699219 398.386719 674.699219 375 Z M 289.09375 631.972656 C 265.105469 631.972656 243.515625 618.179688 232.421875 597.488281 C 258.207031 583.695312 277.699219 560.007812 285.195312 531.222656 L 243.816406 520.128906 C 238.117188 541.714844 221.027344 558.808594 198.839844 565.105469 C 193.742188 566.605469 188.042969 567.503906 182.046875 567.503906 C 146.664062 567.503906 117.878906 538.71875 117.878906 503.335938 C 117.878906 490.140625 121.777344 477.847656 128.972656 467.652344 C 145.164062 476.949219 163.457031 482.046875 182.046875 482.046875 C 212.929688 482.046875 242.316406 468.851562 262.40625 445.464844 L 230.023438 417.277344 C 217.730469 431.371094 200.636719 439.167969 182.046875 439.167969 C 166.453125 439.167969 151.460938 433.472656 139.769531 422.976562 C 125.972656 410.683594 117.878906 393.289062 117.878906 374.699219 C 117.878906 347.714844 134.96875 324.027344 159.558594 314.730469 C 173.652344 335.121094 198.539062 355.808594 243.214844 362.707031 L 249.8125 320.425781 C 219.527344 316.230469 199.136719 303.035156 188.941406 281.445312 C 184.445312 271.550781 182.046875 259.859375 182.046875 246.664062 C 182.046875 217.277344 201.835938 192.691406 228.824219 185.195312 C 229.121094 186.09375 229.421875 187.292969 229.722656 188.195312 C 241.117188 223.277344 273.800781 246.664062 310.683594 246.664062 L 310.683594 203.785156 C 292.089844 203.785156 275.898438 192.089844 270.203125 174.101562 C 268.703125 169.902344 267.804688 165.40625 267.804688 160.90625 C 267.804688 137.21875 286.992188 118.027344 310.683594 118.027344 C 334.371094 118.027344 353.5625 137.21875 353.5625 160.90625 L 353.5625 225.074219 C 353.5625 248.761719 334.371094 267.953125 310.683594 267.953125 C 300.1875 267.953125 289.992188 264.054688 282.195312 256.859375 L 253.410156 288.644531 C 269.003906 302.734375 289.394531 310.53125 310.683594 310.53125 C 326.273438 310.53125 340.96875 306.035156 353.5625 298.539062 L 353.5625 417.578125 C 353.5625 441.265625 334.371094 460.457031 310.683594 460.457031 C 300.1875 460.457031 289.992188 456.558594 282.195312 449.363281 L 253.410156 481.148438 C 269.003906 495.238281 289.394531 503.035156 310.683594 503.035156 C 326.273438 503.035156 340.96875 498.539062 353.5625 491.042969 L 353.5625 567.203125 C 353.5625 603.1875 324.476562 631.972656 289.09375 631.972656 Z M 567.652344 567.804688 C 561.355469 567.804688 555.960938 566.902344 550.261719 565.105469 C 528.671875 559.109375 511.582031 541.714844 505.882812 520.128906 L 464.503906 531.222656 C 472.300781 560.007812 491.792969 583.996094 517.277344 597.488281 C 506.183594 618.179688 484.894531 631.972656 460.605469 631.972656 C 425.226562 631.972656 396.4375 603.1875 396.4375 567.804688 L 396.4375 491.640625 C 409.03125 499.136719 423.726562 503.636719 439.316406 503.636719 C 460.605469 503.636719 480.695312 495.839844 496.589844 481.746094 L 467.804688 449.960938 C 460.007812 457.160156 449.8125 461.058594 439.316406 461.058594 C 415.628906 461.058594 396.4375 441.867188 396.4375 418.179688 L 396.4375 298.839844 C 409.03125 306.335938 423.726562 310.832031 439.316406 310.832031 C 460.605469 310.832031 480.695312 303.035156 496.589844 288.941406 L 467.804688 257.160156 C 460.007812 264.355469 449.8125 268.253906 439.316406 268.253906 C 415.628906 268.253906 396.4375 249.0625 396.4375 225.375 L 396.4375 160.90625 C 396.4375 137.21875 415.628906 118.027344 439.316406 118.027344 C 463.007812 118.027344 482.195312 137.21875 482.195312 160.90625 C 482.195312 165.40625 481.296875 169.902344 479.496094 174.699219 C 473.800781 192.089844 457.609375 203.785156 439.316406 203.785156 L 439.316406 246.664062 C 476.199219 246.664062 508.882812 223.277344 519.976562 188.792969 C 520.578125 187.59375 520.578125 186.394531 520.878906 184.894531 C 547.863281 192.691406 567.652344 216.980469 567.652344 246.363281 C 567.652344 259.558594 565.253906 271.25 560.757812 281.148438 C 550.863281 302.734375 530.472656 315.929688 500.1875 320.425781 L 506.785156 362.707031 C 551.460938 355.808594 576.347656 335.121094 590.441406 314.730469 C 614.730469 324.027344 632.121094 347.414062 632.121094 374.699219 C 632.121094 392.992188 624.027344 410.683594 610.230469 422.976562 C 585.945312 444.265625 546.964844 443.367188 524.476562 422.375 C 522.675781 420.578125 520.878906 418.777344 519.378906 416.980469 L 487.59375 445.464844 C 489.691406 447.863281 492.089844 450.261719 495.089844 453.261719 C 514.878906 471.550781 540.667969 481.746094 567.652344 481.746094 C 586.246094 481.746094 604.535156 476.648438 620.726562 467.355469 C 627.921875 477.847656 631.820312 489.84375 631.820312 503.335938 C 631.820312 539.019531 603.035156 567.804688 567.652344 567.804688 Z M 567.652344 567.804688 " fill-opacity="1" fill-rule="nonzero"/></svg>