<svg xmlns="http://www.w3.org/2000/svg" xmlns:xlink="http://www.w3.org/1999/xlink" width="1000" zoomAndPan="magnify" viewBox="0 0 750 749.999995" height="1000" preserveAspectRatio="xMidYMid meet" version="1.0"><path fill="#f2f2f2" d="M 569.039062 621.464844 C 569.039062 629.140625 562.800781 635.257812 555.238281 635.257812 L 458.28125 635.257812 C 450.601562 635.257812 444.480469 629.019531 444.480469 621.464844 L 444.480469 477.789062 C 444.480469 454.882812 425.878906 436.292969 402.960938 436.292969 L 347.519531 436.292969 C 324.601562 436.292969 306 454.882812 306 477.789062 L 306 621.464844 C 306 629.140625 299.761719 635.257812 292.199219 635.257812 L 194.878906 635.257812 C 187.199219 635.257812 181.078125 629.019531 181.078125 621.464844 L 181.078125 344.546875 L 153.359375 344.546875 L 153.359375 621.464844 C 153.359375 644.371094 171.960938 662.960938 194.878906 662.960938 L 291.839844 662.960938 C 314.761719 662.960938 333.359375 644.371094 333.359375 621.464844 L 333.359375 477.789062 C 333.359375 470.113281 339.601562 463.996094 347.160156 463.996094 L 402.601562 463.996094 C 410.28125 463.996094 416.398438 470.234375 416.398438 477.789062 L 416.398438 621.464844 C 416.398438 644.371094 435 662.960938 457.921875 662.960938 L 554.878906 662.960938 C 577.800781 662.960938 596.398438 644.371094 596.398438 621.464844 L 596.398438 344.546875 L 568.679688 344.546875 Z M 569.039062 621.464844 " fill-opacity="1" fill-rule="nonzero"/><path fill="#f2f2f2" d="M 402 100.132812 C 386.28125 86.699219 363.601562 86.699219 347.878906 100.132812 L 75 333.992188 L 93 354.980469 L 366 121.117188 C 371.28125 116.683594 378.839844 116.683594 384 121.117188 L 657 354.980469 L 675 333.992188 Z M 402 100.132812 " fill-opacity="1" fill-rule="nonzero"/></svg>