<svg xmlns="http://www.w3.org/2000/svg" xmlns:xlink="http://www.w3.org/1999/xlink" width="1000" zoomAndPan="magnify" viewBox="0 0 750 749.999995" height="1000" preserveAspectRatio="xMidYMid meet" version="1.0"><defs><clipPath id="e67c71f943"><path d="M 89.183594 364 L 660.683594 364 L 660.683594 675 L 89.183594 675 Z M 89.183594 364 " clip-rule="nonzero"/></clipPath></defs><g clip-path="url(#e67c71f943)"><path fill="#f2f2f2" d="M 568.167969 401.558594 L 519.613281 366.761719 L 503.019531 390 L 551.574219 424.917969 C 601.972656 460.941406 631.964844 519.46875 631.964844 581.433594 L 631.964844 632.335938 C 631.964844 640.203125 625.570312 646.597656 617.703125 646.597656 L 132.160156 646.597656 C 124.292969 646.597656 117.898438 640.203125 117.898438 632.335938 L 117.898438 578.605469 C 117.898438 518.359375 146.664062 460.820312 194.847656 424.550781 L 244.386719 387.296875 L 227.179688 364.425781 L 177.640625 401.679688 C 122.324219 443.113281 89.257812 509.261719 89.257812 578.484375 L 89.257812 632.214844 C 89.257812 655.820312 108.433594 675 132.160156 675 L 617.703125 675 C 641.304688 675 660.605469 655.820312 660.605469 632.089844 L 660.605469 581.1875 C 660.605469 510.121094 626.0625 442.992188 568.167969 401.558594 Z M 568.167969 401.558594 " fill-opacity="1" fill-rule="nonzero"/></g><path fill="#f2f2f2" d="M 374.933594 389.261719 C 461.59375 389.261719 532.027344 318.8125 532.027344 232.132812 C 532.027344 145.449219 461.59375 75 374.933594 75 C 288.269531 75 217.835938 145.449219 217.835938 232.132812 C 217.835938 318.8125 288.269531 389.261719 374.933594 389.261719 Z M 374.933594 103.523438 C 445.734375 103.523438 503.507812 161.3125 503.507812 232.132812 C 503.507812 302.949219 445.734375 360.738281 374.933594 360.738281 C 304.128906 360.738281 246.355469 303.074219 246.355469 232.132812 C 246.355469 161.1875 304.003906 103.523438 374.933594 103.523438 Z M 374.933594 103.523438 " fill-opacity="1" fill-rule="nonzero"/></svg>