<svg xmlns="http://www.w3.org/2000/svg" xmlns:xlink="http://www.w3.org/1999/xlink" width="1000" zoomAndPan="magnify" viewBox="0 0 750 749.999995" height="1000" preserveAspectRatio="xMidYMid meet" version="1.0"><defs><clipPath id="dc51e8c377"><path d="M 75 190.5 L 675 190.5 L 675 559.5 L 75 559.5 Z M 75 190.5 " clip-rule="nonzero"/></clipPath></defs><g clip-path="url(#dc51e8c377)"><path fill="#f2f2f2" d="M 661.355469 368.175781 L 497.710938 368.175781 L 497.710938 204.53125 C 497.710938 197.03125 491.566406 190.886719 484.066406 190.886719 L 265.933594 190.886719 C 258.433594 190.886719 252.289062 197.03125 252.289062 204.53125 L 252.289062 327.242188 L 88.644531 327.242188 C 81.144531 327.242188 75 333.386719 75 340.886719 L 75 545.46875 C 75 552.96875 81.144531 559.113281 88.644531 559.113281 L 661.355469 559.113281 C 668.855469 559.113281 675 552.96875 675 545.46875 L 675 381.730469 C 675 374.230469 668.855469 368.175781 661.355469 368.175781 Z M 647.710938 531.730469 L 102.289062 531.730469 L 102.289062 354.53125 L 265.933594 354.53125 C 273.433594 354.53125 279.578125 348.386719 279.578125 340.886719 L 279.578125 218.175781 L 470.511719 218.175781 L 470.511719 381.824219 C 470.511719 389.324219 476.65625 395.46875 484.15625 395.46875 L 647.800781 395.46875 L 647.800781 531.730469 Z M 647.710938 531.730469 " fill-opacity="1" fill-rule="nonzero"/></g><path fill="#f2f2f2" d="M 350.601562 253.058594 L 354.757812 271.671875 L 375 262.09375 L 375.363281 262.09375 L 375.363281 346.308594 L 399.398438 346.308594 L 399.398438 239.953125 L 378.796875 239.953125 Z M 350.601562 253.058594 " fill-opacity="1" fill-rule="nonzero"/><path fill="#f2f2f2" d="M 181.71875 476.429688 L 191.476562 468.207031 C 206.835938 454.472656 219.757812 440.285156 219.757812 422.394531 C 219.757812 403.058594 206.476562 389.050781 182.441406 389.050781 C 168.074219 389.050781 155.601562 393.929688 147.558594 399.984375 L 154.609375 417.785156 C 160.210938 413.539062 168.164062 408.929688 177.378906 408.929688 C 189.667969 408.929688 194.910156 415.796875 194.910156 424.472656 C 194.546875 436.941406 183.253906 448.871094 160.03125 469.652344 L 146.386719 482.125 L 146.386719 497.214844 L 221.746094 497.214844 L 221.746094 476.792969 L 181.71875 476.792969 Z M 181.71875 476.429688 " fill-opacity="1" fill-rule="nonzero"/><path fill="#f2f2f2" d="M 558.164062 498.929688 C 548.042969 498.929688 537.921875 494.683594 533.492188 492.425781 L 528.433594 511.039062 C 534.667969 514.925781 546.234375 518.539062 559.96875 518.539062 C 586.988281 518.539062 603.433594 504.804688 603.433594 486.007812 C 603.433594 472.09375 593.132812 462.425781 580.390625 460.164062 L 580.390625 459.804688 C 593.492188 455.195312 599.820312 446.429688 599.820312 435.136719 C 599.820312 420.585938 587.257812 408.660156 564.488281 408.660156 C 550.753906 408.660156 538.011719 412.546875 531.597656 416.703125 L 536.65625 434.683594 C 541.085938 432.0625 550.210938 428.269531 558.886719 428.269531 C 569.367188 428.269531 574.609375 432.96875 574.609375 439.382812 C 574.609375 448.417969 563.945312 451.492188 555.632812 451.671875 L 545.964844 451.671875 L 545.964844 469.472656 L 556.085938 469.472656 C 567.019531 469.472656 577.5 474.261719 577.5 484.652344 C 577.589844 492.695312 571.085938 498.929688 558.164062 498.929688 Z M 558.164062 498.929688 " fill-opacity="1" fill-rule="nonzero"/></svg>